<?xml version="1.0" encoding="utf-8"?>
<!-- Generator: Adobe Illustrator 22.1.0, SVG Export Plug-In . SVG Version: 6.00 Build 0)  -->
<svg version="1.1" id="Layer_1" xmlns="http://www.w3.org/2000/svg" xmlns:xlink="http://www.w3.org/1999/xlink" x="0px" y="0px"
	 width="180.9px" height="91px" viewBox="0 0 180.9 91" style="enable-background:new 0 0 180.9 91;" xml:space="preserve">
<style type="text/css">
	.st0{fill:#FFFFFF;}
	.st1{fill-rule:evenodd;clip-rule:evenodd;fill:#FDB913;}
	.st2{fill-rule:evenodd;clip-rule:evenodd;fill:#0089CF;}
	.st3{fill-rule:evenodd;clip-rule:evenodd;fill:#645FA9;}
	.st4{fill-rule:evenodd;clip-rule:evenodd;fill:#0DB14B;}
	.st5{fill-rule:evenodd;clip-rule:evenodd;fill:#C9234A;}
	.st6{fill-rule:evenodd;clip-rule:evenodd;fill:#F37021;}
</style>
<g>
	<g>
		<path class="st0" d="M138,41.3c0.5,4.3-1.3,12.9-11.2,12.9H54.6c-8.2,0-13.7-6.7-11.3-14.7c1.3-4.3,6.3-8.5,12.2-7.5l0.2,0
			L55.6,32c-7.4-5.5-4.5-14.1-1-17.2c4.1-3.7,10.8-3.7,15.1,0.3l0.2,0.1l-0.1-0.2c-2.2-5.4,0.6-13.2,7.9-14.8
			c5.7-1.2,11.2,1.8,12.9,6.8h0c1.1-3.2,3.6-5.9,8.2-6.9c6.4-1.4,15.7,4.3,12.4,14.8l-0.1,0.2l0.1-0.1c3.9-3.8,9.7-4.5,14.4-0.7
			c4,3.3,6.8,12.4,0,17.3l-0.2,0.1l0.2,0C131.9,30.9,137.2,35.6,138,41.3"/>
		<path class="st1" d="M86.9,53.1L59.7,35c-6.9-4.6-13.8,0.1-15.2,5c-2.1,7.2,2.7,13.2,10.2,13.2H86.9"/>
		<path class="st2" d="M124.9,15.3c-5.6-4.5-12.7-2.2-15.7,4.7L96.5,50.1L124.8,31C131,26.7,128.7,18.4,124.9,15.3"/>
		<path class="st3" d="M109.9,15.3c3.5-9.9-5-15.2-10.9-14c-6,1.3-8,5.8-8,10.3h2.7c0,0,1.6,0,2.2,0.7c0,0-4.3,1.5-4.1,4.2
			c0.2,3.4,0.8,4.8,1.8,11.1c1.5,9,3.1,18.9,3.1,18.9C97.5,44.7,109.9,15.4,109.9,15.3"/>
		<path class="st4" d="M136.8,41.5c-0.9-6.6-8.3-11.6-15.6-6.7c0,0-27.1,18.3-27.4,18.3c0.5,0,33,0,33,0
			C135.6,53.1,137.4,45.5,136.8,41.5"/>
		<path class="st5" d="M89.8,12.3c1.1-7-5.1-12.3-12-10.9c-6.6,1.4-9.1,8.5-7,13.4l13.5,32.1L89.8,12.3"/>
		<path class="st6" d="M84.5,50.2L71.3,19.6c-3.1-7.1-11.4-8-16-3.9c-3.3,2.9-5.8,10.9,1.4,15.8L84.5,50.2"/>
	</g>
	<path class="st0" d="M52.2,62.1h6.3v27.8h-6.3V62.1z M138.4,77.8c4.3,1.7,5.1,2.7,5.1,4.3c0,1.5-1,2.6-3.4,2.6
		c-2.6,0-5.7-1.2-7.8-2.7v6.4c2.1,1.3,5.2,2,7.6,2c6.6,0,9.9-4.2,9.9-8.6c0-5.7-4.9-7.2-9.1-9.2c-1.3-0.6-2.8-1.3-2.8-3
		c0-1.3,1.1-2.5,3.5-2.5c2,0,4.8,1.1,6.5,2.3v-6.2c-2-1-4.4-1.5-6.5-1.5c-6.4,0-9.8,3.9-9.8,7.9C131.7,73,133.6,75.9,138.4,77.8
		 M42.9,75.9L26.5,61.1v28.8h6.1V75.4L49,91V62.1h-6.1V75.9z M17.2,78.1c0,4-1.6,6.1-5.3,6.1c-3.7,0-5.3-2.2-5.3-6.1V62.1H0v16.6
		c0,7.8,4.4,11.6,11.9,11.6c7.5,0,11.9-3.9,11.9-11.6V62.1h-6.5V78.1z M89.1,89.9h17.6V84H95.4v-5.7h10.2v-5.5H95.4v-4.7h11.2v-5.9
		H89.1V89.9z M73.8,77.3l-6.3-15.1h-6.9L73.8,91l13.3-28.8h-6.9L73.8,77.3z M165.9,61.5c8.4,0,14.9,6.1,14.9,14.5
		c0,8.2-6.3,14.5-14.9,14.5c-8.6,0-14.9-6.3-14.9-14.5C151,67.7,157.6,61.5,165.9,61.5 M165.9,84.4c4.7,0,7.8-3.7,7.8-8.4
		s-3.1-8.4-7.8-8.4c-4.7,0-7.8,3.7-7.8,8.4S161.2,84.4,165.9,84.4 M116,89.9h-6.3V62.1h9.6c5.3,0,9.4,2.9,9.4,8.2
		c0,3.9-2.8,6.8-6.5,8l9.2,11.7H124l-8-10.4V89.9z M116,74.4h2.2c2.2,0,3.9-1.4,3.9-3.7c0-2-1.8-3.3-3.9-3.3H116V74.4z"/>
</g>
</svg>
