<svg version="1.1" id="Layer" xmlns="http://www.w3.org/2000/svg" width="300px" height="64.508px">
<g>
	<path fill="#010101" d="M25.3,63.611L8.165,42.348H7.985v21.263H0V0.09h7.985v35.887h0.179l14.893-14.803h9.869L14.714,38.759
		L35.08,63.611H25.3z"/>
	<path fill="#010101" d="M43.11,4.128c1.045,1.016,1.57,2.243,1.57,3.678s-0.524,2.677-1.57,3.723
		c-1.047,1.047-2.288,1.571-3.724,1.571c-1.496,0-2.751-0.508-3.768-1.526c-1.018-1.017-1.525-2.272-1.525-3.768
		c0-1.375,0.507-2.585,1.525-3.633c1.017-1.045,2.272-1.571,3.768-1.571C40.822,2.602,42.063,3.111,43.11,4.128z M35.438,63.611
		V21.174h7.985v42.437H35.438z"/>
	<path fill="#010101" d="M77.336,63.611V37.862c0-1.256-0.076-2.498-0.224-3.725c-0.149-1.225-0.461-2.346-0.938-3.364
		c-0.477-1.017-1.176-1.838-2.099-2.467c-0.922-0.627-2.158-0.942-3.705-0.942c-2.322,0-4.54,0.629-6.653,1.885
		c-2.114,1.256-4.004,2.602-5.67,4.038v30.325h-7.985V21.174h6.718l0.999,4.844c2.443-1.793,4.813-3.23,7.108-4.307
		c2.295-1.077,4.933-1.614,7.915-1.614c1.55,0,3.07,0.269,4.56,0.808c1.49,0.538,2.832,1.421,4.025,2.646
		c1.191,1.227,2.146,2.796,2.861,4.71c0.715,1.916,1.074,4.217,1.074,6.908v28.441H77.336z"/>
	<path fill="#010101" d="M119.234,63.566c-2.453,0.627-5.293,0.942-8.523,0.942c-3.05,0-5.921-0.449-8.613-1.347
		c-2.691-0.896-5.04-2.243-7.043-4.036c-2.004-1.796-3.604-4.038-4.8-6.729c-1.197-2.692-1.794-5.862-1.794-9.511
		c0-3.289,0.568-6.324,1.705-9.106c1.135-2.78,2.721-5.188,4.755-7.221c2.033-2.033,4.41-3.62,7.132-4.757
		c2.721-1.135,5.667-1.704,8.837-1.704c1.375,0,2.571,0.061,3.589,0.179c1.017,0.121,1.943,0.269,2.781,0.45V0.09h7.985v61.278
		C123.689,62.206,121.687,62.937,119.234,63.566z M117.26,27.636c-0.838-0.3-1.675-0.524-2.512-0.674
		c-0.838-0.15-2.005-0.226-3.499-0.226c-2.034,0-3.948,0.36-5.742,1.079c-1.794,0.72-3.364,1.756-4.71,3.105
		c-1.345,1.349-2.408,3-3.185,4.949c-0.778,1.949-1.167,4.124-1.167,6.522c0,4.5,1.286,8.203,3.858,11.112
		c2.571,2.91,6.399,4.365,11.484,4.365c1.016,0,2.019-0.09,3.005-0.271c0.987-0.18,1.809-0.421,2.467-0.721V27.636z"/>
	<path fill="#010101" d="M142.022,64.149c-1.018,0.239-2.095,0.359-3.23,0.359c-2.962,0-5.079-0.794-6.349-2.379
		c-1.271-1.583-1.905-3.572-1.905-5.966V0.09h7.985v52.575c0,1.855,0.254,3.096,0.763,3.723c0.507,0.629,1.359,0.942,2.556,0.942
		c0.299,0,0.643-0.014,1.032-0.044c0.388-0.029,0.882-0.135,1.48-0.313l0.986,5.831C144.145,63.461,143.039,63.909,142.022,64.149z"
		/>
	<path fill="#010101" d="M153.146,44.141c0,1.916,0.299,3.695,0.897,5.339c0.597,1.645,1.465,3.096,2.602,4.352
		c1.136,1.256,2.526,2.242,4.172,2.961c1.645,0.717,3.544,1.077,5.697,1.077c1.854,0,3.679-0.284,5.473-0.854
		c1.795-0.568,3.409-1.269,4.845-2.108l2.243,5.263c-1.854,1.357-4.037,2.421-6.549,3.186c-2.513,0.768-5.024,1.152-7.537,1.152
		c-3.47,0-6.475-0.621-9.017-1.859c-2.543-1.24-4.636-2.898-6.28-4.98c-1.646-2.079-2.871-4.479-3.679-7.202
		c-0.807-2.72-1.211-5.576-1.211-8.568c0-3.049,0.418-5.89,1.256-8.522c0.837-2.632,2.048-4.936,3.634-6.908
		c1.584-1.974,3.483-3.514,5.697-4.62c2.212-1.108,4.665-1.661,7.356-1.661c2.751,0,5.218,0.523,7.401,1.569
		c2.184,1.047,4.038,2.529,5.563,4.441c1.526,1.916,2.677,4.217,3.455,6.91c0.776,2.691,1.167,5.681,1.167,8.971v2.063H153.146z
		 M171.315,33.779c-0.391-1.345-0.958-2.556-1.706-3.633c-0.748-1.077-1.705-1.943-2.871-2.602s-2.527-0.987-4.082-0.987
		c-1.495,0-2.826,0.3-3.992,0.897s-2.169,1.421-3.005,2.467c-0.839,1.047-1.48,2.258-1.93,3.633
		c-0.449,1.376-0.673,2.812-0.673,4.307h18.842C171.898,36.485,171.702,35.125,171.315,33.779z"/>
</g>
<g>
	<linearGradient id="SVGID_1_" gradientUnits="userSpaceOnUse" x1="209.7813" y1="0" x2="209.7813" y2="63.6113">
		<stop  offset="0" style="stop-color:#FBAD1B"/>
		<stop  offset="1" style="stop-color:#F47423"/>
	</linearGradient>
	<path fill="url(#SVGID_1_)" d="M221.087,7.806c-1.557-0.777-3.291-1.166-5.204-1.166c-3.649,0-5.473,2.274-5.473,6.818v7.716
		h11.125l-2.513,6.46h-8.612v35.977h-7.984V27.634h-5.563v-6.46h5.563v-7.027c0-2.883,0.432-5.257,1.3-7.118
		c0.867-1.861,1.959-3.304,3.275-4.324c1.314-1.021,2.75-1.727,4.306-2.118c1.555-0.39,3.02-0.586,4.396-0.586
		c1.017,0,2.153,0.123,3.409,0.364c1.257,0.243,2.452,0.668,3.589,1.273L221.087,7.806z"/>
	<linearGradient id="SVGID_2_" gradientUnits="userSpaceOnUse" x1="230.6055" y1="2.6016" x2="230.6055" y2="63.6113">
		<stop  offset="0" style="stop-color:#FBAD1B"/>
		<stop  offset="1" style="stop-color:#F47423"/>
	</linearGradient>
	<path fill="url(#SVGID_2_)" d="M234.329,4.128c1.046,1.017,1.57,2.243,1.57,3.678s-0.524,2.677-1.57,3.723
		c-1.048,1.047-2.288,1.571-3.724,1.571c-1.495,0-2.752-0.508-3.769-1.526c-1.018-1.017-1.524-2.272-1.524-3.768
		c0-1.375,0.507-2.586,1.524-3.633c1.017-1.045,2.273-1.571,3.769-1.571C232.041,2.602,233.281,3.111,234.329,4.128z
		 M226.658,63.611V21.174h7.984v42.437H226.658z"/>
	<linearGradient id="SVGID_3_" gradientUnits="userSpaceOnUse" x1="253.877" y1="20.0972" x2="253.877" y2="63.6113">
		<stop  offset="0" style="stop-color:#FBAD1B"/>
		<stop  offset="1" style="stop-color:#F47423"/>
	</linearGradient>
	<path fill="url(#SVGID_3_)" d="M262.983,28.89c-1.316-0.658-2.722-0.987-4.216-0.987c-1.437,0-2.887,0.39-4.353,1.166
		c-1.466,0.779-3.065,1.945-4.8,3.499v31.043h-7.984V21.174h6.626l1.09,4.755c2.631-2.391,4.844-3.962,6.639-4.71
		s3.468-1.122,5.024-1.122c1.136,0,2.138,0.15,3.006,0.448c0.866,0.3,1.57,0.629,2.108,0.987L262.983,28.89z"/>
	<linearGradient id="SVGID_4_" gradientUnits="userSpaceOnUse" x1="282.2354" y1="20.187" x2="282.2354" y2="64.5088">
		<stop  offset="0" style="stop-color:#FBAD1B"/>
		<stop  offset="1" style="stop-color:#F47423"/>
	</linearGradient>
	<path fill="url(#SVGID_4_)" d="M272.814,44.141c0,1.916,0.299,3.695,0.898,5.339c0.596,1.645,1.465,3.096,2.601,4.352
		s2.526,2.242,4.173,2.961c1.644,0.717,3.543,1.077,5.696,1.077c1.854,0,3.68-0.284,5.474-0.854
		c1.794-0.568,3.409-1.269,4.844-2.108l2.243,5.263c-1.854,1.357-4.037,2.421-6.549,3.186c-2.513,0.768-5.024,1.152-7.537,1.152
		c-3.47,0-6.475-0.621-9.017-1.859c-2.543-1.24-4.636-2.898-6.279-4.98c-1.646-2.079-2.871-4.479-3.68-7.202
		c-0.807-2.72-1.211-5.576-1.211-8.568c0-3.049,0.418-5.89,1.256-8.522c0.837-2.632,2.049-4.936,3.635-6.908
		c1.583-1.974,3.482-3.514,5.696-4.62c2.212-1.108,4.665-1.661,7.356-1.661c2.752,0,5.219,0.523,7.402,1.569
		c2.184,1.047,4.038,2.529,5.563,4.441c1.525,1.916,2.676,4.217,3.455,6.91c0.775,2.691,1.166,5.681,1.166,8.971v2.063H272.814z
		 M290.983,33.779c-0.391-1.345-0.958-2.556-1.706-3.633c-0.747-1.077-1.704-1.943-2.87-2.602c-1.167-0.658-2.527-0.987-4.082-0.987
		c-1.495,0-2.826,0.3-3.992,0.897c-1.167,0.598-2.169,1.421-3.006,2.467c-0.839,1.047-1.48,2.258-1.929,3.633
		c-0.449,1.376-0.673,2.812-0.673,4.307h18.841C291.566,36.485,291.371,35.125,290.983,33.779z"/>
</g>
</svg>
