<?xml version="1.0" encoding="utf-8"?>
<!-- Generator: Adobe Illustrator 22.1.0, SVG Export Plug-In . SVG Version: 6.00 Build 0)  -->
<svg version="1.1" id="Layer_1" xmlns="http://www.w3.org/2000/svg" xmlns:xlink="http://www.w3.org/1999/xlink" x="0px" y="0px"
	 width="701.7px" height="533.4px" viewBox="0 0 701.7 533.4" style="enable-background:new 0 0 701.7 533.4;" xml:space="preserve"
	>
<style type="text/css">
	.st0{fill:#FFFFFF;}
</style>
<g>
	<g>
		<polygon class="st0" points="64.1,369.7 64.1,396.1 95.5,396.1 95.5,482.9 125.6,482.9 125.6,396.1 156.8,396.1 156.8,369.7 		"/>
		<g>
			<path class="st0" d="M236.8,455.7c-3.7,1.6-7.8,2.5-12.3,2.5c-4.6,0-8.8-0.8-12.4-2.5c-3.7-1.6-6.8-3.9-9.3-6.7
				c-2.5-2.9-4.6-6.2-6-10.1c-1.4-3.8-2.1-8-2.1-12.5c0-4.5,0.7-8.7,2.1-12.5c1.4-3.8,3.4-7.2,6-10.1c2.5-2.9,5.7-5.1,9.3-6.7
				c3.7-1.6,7.9-2.5,12.4-2.5c4.5,0,8.6,0.8,12.3,2.5c3.7,1.6,6.8,3.9,9.3,6.7c2.5,2.9,4.6,6.2,6,10.1c1.4,3.8,2.1,8,2.1,12.5
				c0,4.5-0.7,8.7-2.1,12.5c-1.4,3.8-3.4,7.2-6,10.1C243.6,451.8,240.5,454,236.8,455.7 M267.7,384.2c-5.3-5.2-11.8-9.2-19.2-12
				c-7.4-2.9-15.4-4.3-24-4.3c-8.7,0-16.8,1.5-24.1,4.3c-7.3,2.9-13.7,7-19.2,12c-5.4,5.2-9.7,11.4-12.7,18.5s-4.6,15.1-4.6,23.7
				s1.6,16.5,4.6,23.7c3,7.1,7.3,13.4,12.7,18.5c5.4,5.2,11.9,9.2,19.2,12s15.4,4.3,24.1,4.3c8.5,0,16.6-1.5,24-4.3s13.8-7,19.2-12
				c5.3-5.2,9.6-11.4,12.6-18.5c3-7.1,4.6-15.1,4.6-23.7s-1.6-16.5-4.6-23.7C277.3,395.6,273.1,389.4,267.7,384.2"/>
			<path class="st0" d="M380.4,426.2c0,4-0.7,7.9-2,11.6s-3.4,6.9-5.9,9.7c-2.5,2.7-5.7,4.9-9.5,6.5s-8.1,2.5-12.9,2.5h-17.5v-60.4
				h17.7c5.1,0,9.5,0.7,13.3,2.3c3.8,1.6,7,3.7,9.4,6.4c2.5,2.7,4.4,6,5.6,9.5C379.9,417.9,380.4,421.9,380.4,426.2 M393.8,384.8
				c-5.4-4.8-11.9-8.6-19.3-11.2c-7.4-2.6-15.6-3.9-24.5-3.9h-47.6v113.3h47.7c8.8,0,16.9-1.3,24.3-3.9c7.4-2.6,13.9-6.4,19.3-11.3
				c5.4-4.9,9.7-10.9,12.7-17.8c3-7,4.6-14.9,4.6-23.7c0-8.8-1.6-16.7-4.6-23.7C403.4,395.6,399.2,389.6,393.8,384.8"/>
		</g>
		<path class="st0" d="M487.2,440.4h-26.8l13.4-39.6L487.2,440.4z M492.4,369.7h-37.1L413.1,482l-0.3,0.8h34l5.6-16.1h43.2l5.6,16.1
			h34l-42.6-112.8L492.4,369.7z"/>
		<polygon class="st0" points="603.9,369.7 580.2,410.4 556.2,369.7 522.2,369.7 565.2,437.3 565.2,482.9 595.3,482.9 595.3,437.3 
			638,369.7 		"/>
	</g>
	<g>
		<g>
			<path class="st0" d="M137.9,318.7c7.4-109.6,98.8-196.5,210.1-196.5c111.7,0,203.4,87.6,210.2,197.7c0.2,4.3,0.4,8.6,0.4,13h73.7
				c0-3.9-0.1-7.8-0.2-11.7c-6.1-151.7-131-272.8-284.1-272.8c-152.1,0-276.2,119.5-283.8,269.8c-0.2,4.9-0.4,9.8-0.4,14.7h73.7
				C137.4,328.2,137.5,323.4,137.9,318.7"/>
			<path class="st0" d="M233,319.5c6.6-57.6,55.7-102.5,115-102.5c59.7,0,108.9,45.3,115.2,103.4c0.5,4.1,0.7,8.3,0.7,12.5h73.7
				c0-4.1-0.1-8.1-0.4-12c-6.2-99.1-88.5-177.6-189.1-177.6c-100.5,0-182.7,78.2-189.1,177.2c-0.2,4.2-0.4,8.3-0.4,12.5h73.7
				C232.1,328.4,232.4,323.9,233,319.5"/>
			<path class="st0" d="M347.9,238.1c-46.2,0-84.7,33.1-93.1,76.9c-1.1,5.8-1.7,11.8-1.7,17.9h189.5c0-4.6-0.3-9.1-1-13.5
				C435.2,273.5,395.7,238.1,347.9,238.1"/>
		</g>
	</g>
</g>
</svg>
