<?xml version="1.0" encoding="utf-8"?>
<!-- Generator: Adobe Illustrator 22.1.0, SVG Export Plug-In . SVG Version: 6.00 Build 0)  -->
<svg version="1.1"
	 id="svg2" inkscape:version="0.91 r13725" sodipodi:docname="Bravo.svg" xmlns:cc="http://creativecommons.org/ns#" xmlns:dc="http://purl.org/dc/elements/1.1/" xmlns:inkscape="http://www.inkscape.org/namespaces/inkscape" xmlns:rdf="http://www.w3.org/1999/02/22-rdf-syntax-ns#" xmlns:sodipodi="http://sodipodi.sourceforge.net/DTD/sodipodi-0.dtd" xmlns:svg="http://www.w3.org/2000/svg"
	 xmlns="http://www.w3.org/2000/svg" xmlns:xlink="http://www.w3.org/1999/xlink" x="0px" y="0px" width="999px" height="755px"
	 viewBox="0 0 999 755" style="enable-background:new 0 0 999 755;" xml:space="preserve">
<style type="text/css">
	.st0{fill:#2DC5B8;}
	.st1{fill:#FFFFFF;}
</style>
<sodipodi:namedview  bordercolor="#666666" borderopacity="1.0" fit-margin-bottom="0.5" fit-margin-left="0.5" fit-margin-right="0.5" fit-margin-top="0.5" id="base" inkscape:current-layer="layer1" inkscape:cx="7.414998" inkscape:cy="277.31551" inkscape:document-units="px" inkscape:pageopacity="0.0" inkscape:pageshadow="2" inkscape:window-height="931" inkscape:window-maximized="1" inkscape:window-width="1680" inkscape:window-x="0" inkscape:window-y="1" inkscape:zoom="0.20108349" pagecolor="#ffffff" showgrid="false">
	
		<inkscape:grid  empspacing="5" enabled="true" id="grid2996" originx="-59.5px" originy="-83.771963px" snapvisiblegridlinesonly="true" type="xygrid" visible="true">
		</inkscape:grid>
</sodipodi:namedview>
<g id="layer1" transform="translate(-59.5,-213.6182)" inkscape:groupmode="layer" inkscape:label="Layer 1">
	<path id="path3018" inkscape:connector-curvature="0" sodipodi:nodetypes="cccccc" class="st0" d="M131,267.6H987v478.1H309.4
		L131,914.6V267.6z"/>
	<path id="path2998" inkscape:connector-curvature="0" class="st1" d="M238.8,379.8L208,408v181.1h30.8v-16.7
		c0,0,12.2,20.2,43.5,20.2c43,0,69.9-34.3,69.9-73.2c0-42.5-30.3-73.4-69.8-73.4c-31,0-43.6,20.2-43.6,20.2V379.8z M278.7,474.7
		c24.3,0,42.1,17.7,42.1,44.5c0,26.4-17.4,44.7-42.1,44.7c-22.6,0-41.9-16.4-41.9-44.6C236.8,494.1,253.4,474.7,278.7,474.7z"/>
	<path id="path3004" inkscape:connector-curvature="0" sodipodi:nodetypes="ccccccccccc" class="st1" d="M372.8,589.1V449.5h30.4
		v15.4c0,0,10.2-19,40.7-19c13.4,0,23.2,3.7,23.2,3.7l-6.9,30.4c0,0-10.3-5-22.9-5c-23.9,0-33.6,17.1-33.6,36.5v77.5H372.8z"/>
	<path id="path3007" inkscape:connector-curvature="0" sodipodi:nodetypes="cccccsssccsssss" class="st1" d="M580.8,449.5h30.8
		v139.6h-30.8v-16.7c0,0-12.2,20.2-43.5,20.2c-43,0-69.9-34.3-69.9-73.2c0-42.5,30.3-73.4,69.8-73.4c31,0,43.6,20.2,43.6,20.2V449.5
		z M540.9,474.7c-24.3,0-42.1,17.7-42.1,44.5c0,26.4,17.4,44.7,42.1,44.7c22.6,0,41.9-16.4,41.9-44.6
		C582.8,494.1,566.2,474.7,540.9,474.7z"/>
	<path id="path3009" inkscape:connector-curvature="0" sodipodi:nodetypes="cccccccc" class="st1" d="M626.3,449.5h33.3l41.2,107.7
		l41-107.7h32.4l-55.8,139.5h-36.2L626.3,449.5z"/>
	<path id="path3013" inkscape:connector-curvature="0" class="st1" d="M849.6,446c-46.8,0-75.4,34.1-75.4,73.3
		c0,38.8,28.8,73.4,75.1,73.4c44.6,0,75-32.5,75-73.3C924.3,474.2,889,446,849.6,446z M849.2,474.7c23.5,0,43.9,16.9,43.9,44.8
		c0,26.6-20.1,44.5-43.8,44.5c-25.5,0-43.7-19-43.7-44.7C805.5,495.2,823.2,474.7,849.2,474.7L849.2,474.7z"/>
</g>
</svg>
