<?xml version="1.0" encoding="utf-8"?>
<!-- Generator: Adobe Illustrator 22.1.0, SVG Export Plug-In . SVG Version: 6.00 Build 0)  -->
<svg version="1.1" id="Layer_1" xmlns="http://www.w3.org/2000/svg" xmlns:xlink="http://www.w3.org/1999/xlink" x="0px" y="0px"
	 width="32.1px" height="52.7px" viewBox="0 0 32.1 52.7" style="enable-background:new 0 0 32.1 52.7;" xml:space="preserve">
<style type="text/css">
	.st0{fill:#FFFFFF;}
	.st1{fill:#A4C639;}
	.st2{fill:#FFFFFF;stroke:#A4C639;stroke-miterlimit:10;}
	.st3{fill:none;}
</style>
<g>
	<g>
		<g id="b_5_">
			<g>
				<path class="st0" d="M13.8,19.7L13.8,19.7c0,0.3-0.2,0.5-0.5,0.5s-0.5-0.2-0.5-0.5s0.2-0.5,0.5-0.5c0.1,0,0.1,0,0.2,0
					C13.6,19.3,13.8,19.4,13.8,19.7z"/>
				<path class="st1" d="M10.1,22.3L10.1,22.3L10.1,22.3L10.1,22.3L10.1,22.3z"/>
				<path class="st1" d="M10.5,22.3C10.5,22.3,10.5,22.3,10.5,22.3L10.5,22.3L10.5,22.3L10.5,22.3z"/>
				<path class="st1" d="M21.5,22.3L21.5,22.3L21.5,22.3C21.5,22.3,21.5,22.3,21.5,22.3L21.5,22.3z"/>
				<path class="st1" d="M22,22.3L22,22.3L22,22.3L22,22.3L22,22.3z"/>
				<path class="st0" d="M13.2,17c-0.1,0-0.2,0.1-0.4,0.2l0.2,0.4c0.1,0,0.2-0.1,0.4-0.2L13.2,17z M18.8,17l-0.2,0.4
					c0.1,0,0.2,0.1,0.4,0.2l0.2-0.4C19.1,17,18.9,17,18.8,17z M10.1,22.3L10.1,22.3L10.1,22.3L10.1,22.3L10.1,22.3z M22,22.3
					L22,22.3L22,22.3L22,22.3L22,22.3z"/>
			</g>
			<g>
				<path class="st1" d="M10.5,22.3L10.5,22.3L10.5,22.3C10.5,22.3,10.5,22.3,10.5,22.3L10.5,22.3z M21.5,22.3
					C21.5,22.3,21.5,22.3,21.5,22.3L21.5,22.3L21.5,22.3L21.5,22.3z"/>
				<path class="st0" d="M21.5,22.3C21.5,22.3,21.5,22.3,21.5,22.3L21.5,22.3L21.5,22.3L21.5,22.3z M22,22.3L22,22.3L22,22.3
					L22,22.3L22,22.3z M22.4,22.7C22.4,22.7,22.4,22.7,22.4,22.7v-0.4C22.4,22.5,22.4,22.6,22.4,22.7z M9.6,22.4v0.3l0,0
					C9.6,22.6,9.6,22.5,9.6,22.4z M10.5,22.3L10.5,22.3L10.5,22.3C10.5,22.3,10.5,22.3,10.5,22.3L10.5,22.3z M10.1,22.3L10.1,22.3
					L10.1,22.3L10.1,22.3L10.1,22.3z"/>
			</g>
		</g>
	</g>
	<g>
		<g id="a_5_">
			<g>
				<path class="st1" d="M13.5,17.4c-0.1,0-0.2,0.1-0.4,0.2l-0.2-0.4l-0.7-1.3c0-0.1,0-0.2,0.1-0.3s0.2,0,0.3,0.1l0.7,1.3L13.5,17.4
					z"/>
			</g>
			<g id="c_11_">
				<path class="st1" d="M25.1,23.9v5.6c0,0.8-0.6,1.3-1.3,1.3s-1.3-0.6-1.3-1.3v-5.6c0-0.8,0.6-1.3,1.3-1.3
					C24.6,22.6,25.1,23.1,25.1,23.9z"/>
			</g>
		</g>
		<g id="a_4_">
			<g>
				<path class="st1" d="M19.9,15.8l-0.7,1.3l-0.2,0.4c-0.1,0-0.2-0.1-0.4-0.2l0.2-0.4l0.7-1.3c0,0,0.1-0.1,0.2-0.1c0,0,0,0,0.1,0
					C19.9,15.6,20,15.7,19.9,15.8z"/>
			</g>
			<g id="c_9_">
				<path class="st1" d="M9.6,23.9v5.6c0,0.8-0.6,1.3-1.3,1.3c-0.8,0-1.3-0.6-1.3-1.3v-5.6c0-0.8,0.6-1.3,1.3-1.3S9.6,23.1,9.6,23.9
					z"/>
			</g>
		</g>
		<g id="b_4_">
			<g>
				<path class="st1" d="M10.1,22.3L10.1,22.3L10.1,22.3L10.1,22.3L10.1,22.3z"/>
				<path class="st1" d="M10.5,22.3C10.5,22.3,10.5,22.3,10.5,22.3L10.5,22.3L10.5,22.3L10.5,22.3z"/>
				<path class="st1" d="M21.5,22.3L21.5,22.3L21.5,22.3C21.5,22.3,21.5,22.3,21.5,22.3L21.5,22.3z"/>
				<path class="st1" d="M22,22.3L22,22.3L22,22.3L22,22.3L22,22.3z"/>
			</g>
			<g>
				<path class="st1" d="M10.5,22.3L10.5,22.3L10.5,22.3C10.5,22.3,10.5,22.3,10.5,22.3L10.5,22.3z M21.5,22.3
					C21.5,22.3,21.5,22.3,21.5,22.3L21.5,22.3L21.5,22.3L21.5,22.3z"/>
				<path class="st0" d="M23.8,22.1c-0.5,0-1,0.2-1.4,0.6c0,0,0,0,0,0c0-0.1,0-0.2,0-0.4v0c0-2.1-1.1-3.9-2.9-5l0.8-1.3
					c0-0.1,0.1-0.2,0.1-0.3c0-0.2-0.1-0.5-0.4-0.6c-0.3-0.2-0.7,0-0.9,0.3l-0.8,1.4c-0.8-0.3-1.5-0.4-2.4-0.4
					c-0.8,0-1.6,0.1-2.4,0.4l-0.7-1.4c-0.1-0.2-0.4-0.4-0.6-0.4c-0.1,0-0.2,0-0.3,0.1c-0.3,0.2-0.4,0.6-0.3,0.9l0.7,1.3
					c-1.7,1.1-2.9,2.9-2.9,5v0c0,0.1,0,0.2,0,0.4l0,0c-0.3-0.4-0.8-0.6-1.4-0.6c-1,0-1.8,0.8-1.8,1.8v5.6c0,1,0.8,1.8,1.8,1.8
					c0.5,0,1-0.3,1.4-0.6v0.8c0,1.1,0.8,1.9,1.9,1.9H12v2.5c0,1,0.8,1.8,1.8,1.8c1,0,1.8-0.8,1.8-1.8v-2.5h0.8v2.5
					c0,1,0.8,1.8,1.8,1.8c1,0,1.8-0.8,1.8-1.8v-2.5h0.5c1.1,0,1.9-0.8,1.9-1.9v-0.8c0.4,0.4,0.8,0.6,1.4,0.6c1,0,1.8-0.8,1.8-1.8
					v-5.5C25.6,22.9,24.8,22.1,23.8,22.1z M9.6,29.5c0,0.8-0.6,1.3-1.3,1.3c-0.8,0-1.3-0.6-1.3-1.3v-5.6c0-0.8,0.6-1.3,1.3-1.3
					c0.8,0,1.3,0.6,1.3,1.3V29.5z M22,31.4c0,0.8-0.7,1.5-1.5,1.5h-1v3c0,0.8-0.6,1.3-1.3,1.3c-0.8,0-1.3-0.6-1.3-1.3v-3h-1.8v3
					c0,0.8-0.6,1.3-1.3,1.3c-0.8,0-1.3-0.6-1.3-1.3v-3h-1c-0.8,0-1.5-0.7-1.5-1.5v-8.6H22V31.4z M22,22.3L22,22.3L22,22.3h-0.5l0,0
					v0v0h-11v0v0l0,0h-0.5l0,0l0,0l0,0c0-0.5,0.1-0.9,0.2-1.4c0.4-1.3,1.2-2.4,2.4-3.2c0,0,0.1-0.1,0.2-0.1c0.1,0,0.1-0.1,0.2-0.1
					l-0.2-0.4l-0.7-1.3c0-0.1,0-0.2,0.1-0.3c0.1,0,0.2,0,0.3,0.1l0.7,1.3l0.2,0.4c0.1,0,0.1-0.1,0.2-0.1c0.1,0,0.1,0,0.2-0.1
					c0.7-0.2,1.4-0.4,2.1-0.4c0.8,0,1.5,0.1,2.1,0.4c0.1,0,0.1,0,0.2,0.1s0.1,0,0.2,0.1l0.2-0.4l0.7-1.3c0,0,0.1-0.1,0.2-0.1
					c0,0,0,0,0.1,0c0.1,0,0.1,0.2,0.1,0.3l-0.7,1.3l-0.2,0.4c0.1,0,0.1,0.1,0.2,0.1c0.1,0,0.1,0.1,0.2,0.1c1.2,0.8,2.1,1.9,2.4,3.2
					C21.9,21.4,22,21.8,22,22.3L22,22.3z M25.1,29.5c0,0.8-0.6,1.3-1.3,1.3s-1.3-0.6-1.3-1.3v-5.6c0-0.8,0.6-1.3,1.3-1.3
					s1.3,0.6,1.3,1.3V29.5z"/>
				<path class="st1" d="M21.8,20.9c-0.4-1.3-1.2-2.4-2.4-3.2c0,0-0.1-0.1-0.2-0.1c0,0-0.1-0.1-0.2-0.1c-0.1,0-0.2-0.1-0.4-0.2
					c-0.1,0-0.1-0.1-0.2-0.1c-0.1,0-0.1,0-0.2-0.1c-0.7-0.2-1.4-0.4-2.1-0.4c-0.8,0-1.5,0.1-2.1,0.4c-0.1,0-0.1,0-0.2,0.1
					c-0.1,0-0.1,0-0.2,0.1c-0.1,0-0.2,0.1-0.4,0.2c-0.1,0-0.1,0.1-0.2,0.1c-0.1,0-0.1,0.1-0.2,0.1c-1.2,0.8-2.1,1.9-2.4,3.2
					c-0.1,0.4-0.2,0.9-0.2,1.4H22C22,21.8,21.9,21.4,21.8,20.9z M13.8,19.7c0,0.2-0.2,0.4-0.5,0.4s-0.5-0.2-0.5-0.5s0.2-0.5,0.5-0.5
					c0.1,0,0.1,0,0.2,0C13.7,19.3,13.8,19.5,13.8,19.7C13.8,19.7,13.8,19.7,13.8,19.7z M18.8,20.1c-0.3,0-0.4-0.2-0.5-0.4v0
					c0-0.2,0.1-0.4,0.3-0.4c0,0,0.1,0,0.2,0c0.3,0,0.5,0.2,0.5,0.5S19,20.1,18.8,20.1z"/>
				<path class="st1" d="M22,22.8v8.6c0,0.8-0.7,1.5-1.5,1.5h-1v3c0,0.8-0.6,1.3-1.3,1.3c-0.8,0-1.3-0.6-1.3-1.3v-3h-1.8v3
					c0,0.8-0.6,1.3-1.3,1.3c-0.8,0-1.3-0.6-1.3-1.3v-3h-1c-0.8,0-1.5-0.7-1.5-1.5v-8.6H22z"/>
			</g>
		</g>
	</g>
	<g>
		<g>
			<path class="st0" d="M10.1,22.3L10.1,22.3L10.1,22.3L10.1,22.3L10.1,22.3z"/>
			<path class="st0" d="M10.5,22.3C10.5,22.3,10.5,22.3,10.5,22.3L10.5,22.3L10.5,22.3L10.5,22.3z"/>
			<path class="st0" d="M21.5,22.3L21.5,22.3L21.5,22.3C21.5,22.3,21.5,22.3,21.5,22.3L21.5,22.3z"/>
			<path class="st0" d="M22,22.3L22,22.3L22,22.3L22,22.3L22,22.3z"/>
		</g>
		<g>
			<path class="st0" d="M19.3,19.7c0,0.3-0.2,0.5-0.5,0.5s-0.4-0.2-0.5-0.4v0c0-0.2,0.1-0.4,0.3-0.4c0,0,0.1,0,0.2,0
				C19,19.1,19.3,19.3,19.3,19.7z"/>
		</g>
	</g>
</g>
<path class="st2" d="M26.3,0.5H5.7c-2.8,0-5.2,2.3-5.2,5.2V47c0,2.8,2.3,5.2,5.2,5.2h20.7c2.8,0,5.2-2.3,5.2-5.2V5.7
	C31.5,2.8,29.2,0.5,26.3,0.5z M27.6,40.5c0,0.7-0.6,1.3-1.3,1.3H5.7c-0.7,0-1.3-0.6-1.3-1.3V12.1c0-0.7,0.6-1.3,1.3-1.3h20.7
	c0.7,0,1.3,0.6,1.3,1.3v28.4H27.6z"/>
<g>
	<path class="st1" d="M18.1,47c0,1.2-0.9,2.1-2.1,2.1s-2.1-1-2.1-2.1c0-1.2,1-2.1,2.1-2.1C17.2,44.9,18.1,45.8,18.1,47z"/>
	<path class="st1" d="M12.1,6.3c0-0.3,0.3-0.5,0.6-0.5h6.5c0.4,0,0.7,0.2,0.7,0.5s-0.3,0.5-0.7,0.5h-6.5C12.4,6.8,12.1,6.6,12.1,6.3
		z"/>
</g>
<g>
	<g>
		<g id="b">
			<g>
				<path class="st0" d="M73.6,17.9c-1.1,0-2.1,0.5-2.7,1.2v-0.6c0,0,0,0,0,0c0,0,0-0.1,0-0.1c0-4.2-2.3-7.8-5.8-10l1.4-2.6
					c0.1-0.2,0.2-0.4,0.2-0.6c0-0.5-0.2-0.9-0.7-1.2c-0.6-0.4-1.4-0.1-1.8,0.5l-1.5,2.7h0c-1.5-0.5-3.1-0.8-4.8-0.8
					c-1.7,0-3.3,0.3-4.8,0.8l-1.5-2.7c-0.2-0.4-0.7-0.7-1.2-0.7c-0.2,0-0.4,0.1-0.6,0.2c-0.6,0.4-0.9,1.2-0.5,1.8l1.4,2.6
					c-3.5,2.1-5.8,5.8-5.8,10c0,0,0,0.1,0,0.1c0,0.2,0,0.5,0,0.7c0,0,0,0,0,0c-0.7-0.8-1.6-1.2-2.7-1.2c-2,0-3.6,1.6-3.6,3.6v11.2
					c0,2,1.6,3.6,3.6,3.6c1.1,0,2.1-0.5,2.7-1.2v1.6c0,2.1,1.7,3.8,3.8,3.8h1v5c0,2,1.6,3.6,3.6,3.6c2,0,3.6-1.6,3.6-3.6v-5h1.7v5
					c0,2,1.6,3.6,3.6,3.6c2,0,3.6-1.6,3.6-3.6v-5h1c2.1,0,3.8-1.7,3.8-3.8v-1.6c0.7,0.8,1.6,1.2,2.7,1.2c2,0,3.6-1.6,3.6-3.6V21.5
					C77.3,19.5,75.6,17.9,73.6,17.9z M45,32.7c0,1.5-1.2,2.7-2.7,2.7c-1.5,0-2.7-1.2-2.7-2.7V21.5c0-1.5,1.2-2.7,2.7-2.7
					c1.5,0,2.7,1.2,2.7,2.7V32.7z M70,36.6c0,1.6-1.3,2.9-2.9,2.9h-1.9v5.9c0,1.5-1.2,2.7-2.7,2.7c-1.5,0-2.7-1.2-2.7-2.7v-5.9h-3.6
					v5.9c0,1.5-1.2,2.7-2.7,2.7c-1.5,0-2.7-1.2-2.7-2.7v-5.9h-1.9c-1.6,0-2.9-1.3-2.9-2.9V19.3H70V36.6z M46,18.4
					c0-1,0.1-1.9,0.4-2.8c0.7-2.6,2.5-4.9,4.9-6.4c0.1-0.1,0.3-0.2,0.4-0.2c0.1-0.1,0.3-0.2,0.4-0.2l-0.5-0.8l-1.4-2.6
					c-0.1-0.2,0-0.4,0.1-0.5c0.2-0.1,0.4,0,0.5,0.1l1.5,2.6h0l0.5,0.8c0.1-0.1,0.3-0.1,0.4-0.2c0.1-0.1,0.3-0.1,0.4-0.2
					C55,7.6,56.5,7.3,58,7.3s3,0.3,4.3,0.7c0.2,0.1,0.3,0.1,0.4,0.2c0.1,0.1,0.3,0.1,0.4,0.2l0.5-0.8h0L65.1,5
					c0.1-0.1,0.2-0.2,0.3-0.2c0.1,0,0.1,0,0.2,0c0.2,0.1,0.3,0.3,0.1,0.5l-1.4,2.6l-0.5,0.8C64,8.8,64.1,8.9,64.3,9
					c0.1,0.1,0.3,0.2,0.4,0.2c2.4,1.5,4.2,3.7,4.9,6.4c0.2,0.9,0.4,1.8,0.4,2.8H46z M76.3,32.7c0,1.5-1.2,2.7-2.7,2.7
					c-1.5,0-2.7-1.2-2.7-2.7V21.5c0-1.5,1.2-2.7,2.7-2.7c1.5,0,2.7,1.2,2.7,2.7V32.7z"/>
			</g>
			<g>
				<path class="st0" d="M59.8,39.5v0.9h5.4v-0.9H59.8z M45.1,18.5C45.1,18.5,45.1,18.5,45.1,18.5l0,0.7c0,0,0,0,0,0
					C45.1,18.9,45.1,18.7,45.1,18.5z M50.8,39.5v0.9h5.4v-0.9H50.8z"/>
			</g>
		</g>
	</g>
	<g>
		<g id="a">
			<g id="c">
				<path class="st1" d="M76.3,21.5v11.2c0,1.5-1.2,2.7-2.7,2.7c-1.5,0-2.7-1.2-2.7-2.7V21.5c0-1.5,1.2-2.7,2.7-2.7
					C75.1,18.9,76.3,20.1,76.3,21.5z"/>
			</g>
			<g transform="scale(-1,1)">
				<g id="c_1_">
					<path class="st1" d="M65.1,39.5v5.9c0,1.5-1.2,2.7-2.7,2.7c-1.5,0-2.7-1.2-2.7-2.7v-5.9H65.1z"/>
				</g>
			</g>
		</g>
		<g id="a_1_">
			<g id="c_2_">
				<path class="st1" d="M45,21.5v11.2c0,1.5-1.2,2.7-2.7,2.7c-1.5,0-2.7-1.2-2.7-2.7V21.5c0-1.5,1.2-2.7,2.7-2.7
					C43.8,18.9,45,20.1,45,21.5z"/>
			</g>
			<g>
				<g id="c_3_">
					<path class="st1" d="M56.2,39.5v5.9c0,1.5-1.2,2.7-2.7,2.7c-1.5,0-2.7-1.2-2.7-2.7v-5.9H56.2z"/>
				</g>
			</g>
		</g>
		<g id="b_1_">
			<g>
				<path class="st1" d="M69.6,15.6c-0.7-2.6-2.5-4.9-4.9-6.4c-0.1-0.1-0.3-0.2-0.4-0.2c-0.1-0.1-0.3-0.2-0.4-0.2l0.5-0.8l1.4-2.6
					c0.1-0.2,0-0.4-0.1-0.5c-0.1,0-0.1,0-0.2,0c-0.1,0-0.3,0.1-0.3,0.2l-1.5,2.6h0l-0.5,0.8c-0.1-0.1-0.3-0.1-0.4-0.2
					c-0.1-0.1-0.3-0.1-0.4-0.2C61,7.6,59.5,7.3,58,7.3s-3,0.3-4.3,0.7c-0.2,0.1-0.3,0.1-0.4,0.2c-0.1,0.1-0.3,0.1-0.4,0.2l-0.5-0.8
					h0L50.9,5c-0.1-0.2-0.3-0.2-0.5-0.1c-0.2,0.1-0.3,0.3-0.1,0.5l1.4,2.6l0.5,0.8C52,8.8,51.9,8.9,51.7,9c-0.1,0.1-0.3,0.2-0.4,0.2
					c-2.4,1.5-4.2,3.7-4.9,6.4c-0.2,0.9-0.4,1.8-0.4,2.8H70C70,17.4,69.8,16.5,69.6,15.6z M53.5,13.1L53.5,13.1
					c-0.1,0.5-0.5,0.9-1,0.9c-0.6,0-1-0.4-1-1c0-0.6,0.4-1,1-1c0.1,0,0.3,0,0.4,0.1c0.3,0.2,0.6,0.5,0.6,0.9
					C53.5,13,53.5,13.1,53.5,13.1z M63.5,14c-0.5,0-0.9-0.4-1-0.9v0c0,0,0-0.1,0-0.1c0-0.4,0.2-0.7,0.6-0.9v0
					c0.1-0.1,0.3-0.1,0.4-0.1c0.6,0,1,0.4,1,1C64.5,13.5,64.1,14,63.5,14z"/>
				<path class="st1" d="M70,19.3v17.3c0,1.6-1.3,2.9-2.9,2.9H48.9c-1.6,0-2.9-1.3-2.9-2.9V19.3H70z"/>
			</g>
		</g>
	</g>
	<g>
		<g>
			<line class="st3" x1="45.5" y1="18.8" x2="45.5" y2="18.8"/>
		</g>
		<g>
			<path class="st0" d="M53.5,13c0,0,0,0.1,0,0.1v0c-0.1,0.5-0.5,0.9-1,0.9c-0.6,0-1-0.4-1-1c0-0.6,0.4-1,1-1c0.1,0,0.3,0,0.4,0.1
				C53.2,12.2,53.5,12.6,53.5,13z"/>
		</g>
		<g>
			<path class="st0" d="M64.5,13c0,0.6-0.4,1-1,1c-0.5,0-0.9-0.4-1-0.9v0c0,0,0-0.1,0-0.1c0-0.4,0.2-0.7,0.6-0.9v0
				c0.1-0.1,0.3-0.1,0.4-0.1C64.1,12,64.5,12.4,64.5,13z"/>
		</g>
	</g>
</g>
</svg>
