<?xml version="1.0" encoding="utf-8"?>
<!-- Generator: Adobe Illustrator 22.1.0, SVG Export Plug-In . SVG Version: 6.00 Build 0)  -->
<svg version="1.1" id="Layer_1" xmlns="http://www.w3.org/2000/svg" xmlns:xlink="http://www.w3.org/1999/xlink" x="0px" y="0px"
	 width="150px" height="46.6px" viewBox="0 0 150 46.6" style="enable-background:new 0 0 150 46.6;" xml:space="preserve">
<style type="text/css">
	.st0{fill:#FFFFFF;}
</style>
<path class="st0" d="M23.6,15.3c0-4.3-3.4-7.7-7.6-7.7h-3.8v15.3H16C20.2,22.9,23.6,19.5,23.6,15.3 M40.8,45.8H26.9l-11-15.3h-3.7
	v15.3H0V0h17.5c10.1,0,18.3,6.9,18.3,15.3c0,5.2-3.2,9.8-8,12.6L40.8,45.8"/>
<path class="st0" d="M54.6,18.1c-3.2,0-6,4.4-6,9.8s2.7,9.8,6,9.8c3.3,0,6-4.4,6-9.8C60.6,22.5,57.9,18.1,54.6,18.1 M73.4,27.9
	c0,10.4-8.4,18.7-18.8,18.7c-10.4,0-18.8-8.3-18.8-18.7c0-10.4,8.4-18.7,18.8-18.7C65,9.2,73.4,17.5,73.4,27.9 M102.1,10L88,24V9.9
	H75.8v35.9H88V31.3l14.7,14.6h15.4L99.4,27.1l15.5-15.5V33c0,7.1,4.3,13.6,15,13.6c5.1,0,9.8-2.9,12-5.5l5.5,4.7h2.6V10h-12.2v23.2
	c-1.4,2.4-3.3,3.9-6.3,3.9c-3,0-4.4-1.8-4.4-7.5V10H102.1L102.1,10z"/>
</svg>
