<?xml version="1.0" encoding="utf-8"?>
<!-- Generator: Adobe Illustrator 22.1.0, SVG Export Plug-In . SVG Version: 6.00 Build 0)  -->
<svg version="1.1" id="Layer_1" xmlns="http://www.w3.org/2000/svg" xmlns:xlink="http://www.w3.org/1999/xlink" x="0px" y="0px"
	 width="28.3px" height="28.3px" viewBox="0 0 28.3 28.3" style="enable-background:new 0 0 28.3 28.3;" xml:space="preserve">
<style type="text/css">
	.st0{fill:#107C10;}
</style>
<g id="Final-Designs">
	<g id="Platform-View--------Step-2" transform="translate(-834.000000, -405.000000)">
		<g id="Content-Area" transform="translate(109.000000, 295.000000)">
			<g id="Content" transform="translate(20.000000, 70.000000)">
				<g id="Platform---Row-1">
					<g id="Card---CNBC" transform="translate(600.000000, 0.000000)">
						<g id="logo-xbox" transform="translate(105.000000, 40.000000)">
							<path id="Shape" class="st0" d="M13.4,21.9c-1.2-0.1-2.4-0.5-3.5-1.2c-0.9-0.6-1.1-0.8-1.1-1.3c0-0.9,1-2.6,2.8-4.5
								c1-1.1,2.4-2.3,2.6-2.3c0.3,0.1,2.6,2.4,3.5,3.4c1.4,1.7,2,3.1,1.7,3.7c-0.2,0.5-1.8,1.4-2.9,1.8
								C15.6,21.9,14.4,22,13.4,21.9z M7.7,18.5c-0.7-1.1-1.1-2.2-1.3-3.8c-0.1-0.5,0-0.8,0.1-1.9c0.2-1.3,1-2.9,1.9-3.8
								c0.4-0.4,0.4-0.4,0.9-0.3c0.6,0.2,1.2,0.6,2.2,1.5l0.6,0.5L11.7,11c-1.4,1.7-2.9,4.2-3.5,5.7c-0.3,0.8-0.4,1.7-0.3,2
								C8.1,19,8,18.9,7.7,18.5L7.7,18.5z M20.4,18.6c0.1-0.4,0-1-0.2-1.6c-0.5-1.4-2-4-3.4-5.8l-0.4-0.6l0.5-0.4
								c0.6-0.6,1.1-0.9,1.5-1.2c0.4-0.2,0.9-0.4,1.1-0.4c0.1,0,0.6,0.5,1,1.1c0.6,0.9,1.1,1.9,1.3,3c0.1,0.7,0.2,2.2,0,2.9
								c-0.1,0.6-0.4,1.3-0.6,1.8c-0.2,0.4-0.6,1.1-0.8,1.4C20.4,18.9,20.4,18.9,20.4,18.6L20.4,18.6z M13.5,8.3
								c-0.7-0.3-1.7-0.7-2.2-0.8c-0.2,0-0.5-0.1-0.7,0c-0.5,0-0.4,0,0.3-0.3c0.6-0.3,1.1-0.5,1.8-0.6c0.8-0.2,2.2-0.2,3,0
								C16.5,6.7,17.5,7,18,7.4l0.2,0.1l-0.4,0c-0.7,0-1.8,0.3-3,0.8c-0.4,0.2-0.7,0.3-0.7,0.3C14.1,8.6,13.8,8.5,13.5,8.3L13.5,8.3
								z"/>
						</g>
					</g>
				</g>
			</g>
		</g>
	</g>
</g>
</svg>
