<?xml version="1.0" encoding="utf-8"?>
<!-- Generator: Adobe Illustrator 22.1.0, SVG Export Plug-In . SVG Version: 6.00 Build 0)  -->
<svg version="1.1" id="Layer_1" xmlns="http://www.w3.org/2000/svg" xmlns:xlink="http://www.w3.org/1999/xlink" x="0px" y="0px"
	 width="1000px" height="245.6px" viewBox="0 0 1000 245.6" style="enable-background:new 0 0 1000 245.6;" xml:space="preserve">
<style type="text/css">
	.st0{filter:url(#Adobe_OpacityMaskFilter);}
	.st1{fill:#FFFFFF;}
	.st2{mask:url(#mask-2_1_);fill:#E1FF00;}
	.st3{filter:url(#Adobe_OpacityMaskFilter_1_);}
	.st4{mask:url(#mask-4_1_);fill:#E1FF00;}
	.st5{filter:url(#Adobe_OpacityMaskFilter_2_);}
	.st6{mask:url(#mask-6_1_);fill:#E1FF00;}
	.st7{fill:#E1FF00;}
</style>
<g id="Clip-2">
</g>
<g id="Clip-5">
</g>
<g id="Clip-8">
</g>
<g>
	<defs>
		<filter id="Adobe_OpacityMaskFilter" filterUnits="userSpaceOnUse" x="245.5" y="0" width="242.1" height="245.6">
			<feColorMatrix  type="matrix" values="1 0 0 0 0  0 1 0 0 0  0 0 1 0 0  0 0 0 1 0"/>
		</filter>
	</defs>
	<mask maskUnits="userSpaceOnUse" x="245.5" y="0" width="242.1" height="245.6" id="mask-2_1_">
		<g class="st0">
			<polygon id="path-1_1_" class="st1" points="245.5,0 487.7,0 487.7,245.6 245.5,245.6 			"/>
		</g>
	</mask>
	<path id="Fill-1" class="st2" d="M482.1,0H384c-2.2,2.2-3.4,3.4-5.6,5.6v116.6h-24.7V5.6L348.1,0h-97c-2.2,2.2-3.4,3.4-5.6,5.6
		v117.7l66.4,67V240c2.2,2.2,3.4,3.4,5.6,5.6h97c2.2-2.2,3.4-3.4,5.6-5.6v-50.2l67.5-67.6V5.6C485.5,3.4,484.2,2.2,482.1,0"/>
	<defs>
		<filter id="Adobe_OpacityMaskFilter_1_" filterUnits="userSpaceOnUse" x="757.9" y="0" width="242.1" height="245.6">
			<feColorMatrix  type="matrix" values="1 0 0 0 0  0 1 0 0 0  0 0 1 0 0  0 0 0 1 0"/>
		</filter>
	</defs>
	<mask maskUnits="userSpaceOnUse" x="757.9" y="0" width="242.1" height="245.6" id="mask-4_1_">
		<g class="st3">
			<polygon id="path-3_1_" class="st1" points="1000,0 1000,245.6 757.9,245.6 757.9,0 			"/>
		</g>
	</mask>
	<path id="Fill-4" class="st4" d="M994.4,0h-98.1c-2.2,2.2-3.4,3.4-5.6,5.6v116.6H866V5.6c-2.2-2.2-3.4-3.4-5.6-5.6h-97
		c-2.2,2.2-3.4,3.4-5.6,5.6v117.7l66.4,67V240c2.2,2.2,3.4,3.4,5.6,5.6h97c2.2-2.2,3.4-3.4,5.6-5.6v-50.2l67.5-67.6V5.6
		C997.8,3.4,996.6,2.2,994.4,0"/>
	<defs>
		<filter id="Adobe_OpacityMaskFilter_2_" filterUnits="userSpaceOnUse" x="0" y="0" width="220.8" height="122.2">
			<feColorMatrix  type="matrix" values="1 0 0 0 0  0 1 0 0 0  0 0 1 0 0  0 0 0 1 0"/>
		</filter>
	</defs>
	<mask maskUnits="userSpaceOnUse" x="0" y="0" width="220.8" height="122.2" id="mask-6_1_">
		<g class="st5">
			<polygon id="path-5_1_" class="st1" points="0,0 220.8,0 220.8,122.2 0,122.2 			"/>
		</g>
	</mask>
	<path id="Fill-7" class="st6" d="M215.2,0H49L0,49.1v67.6c2.2,2.2,3.4,3.4,5.6,5.6h104.8V98.1h104.8c2.2-2.2,3.4-3.4,5.6-5.6V5.6
		C218.6,3.4,217.4,2.2,215.2,0"/>
	<path id="Fill-10" class="st7" d="M5.6,146.3c-2.2,2.2-3.4,3.4-5.6,5.6v88c2.2,2.2,3.4,3.4,5.6,5.6h166.2l49-49.1v-68.7
		c-2.2-2.2-3.4-3.4-5.6-5.6H110.4v24.1L5.6,146.3L5.6,146.3z"/>
	<path id="Fill-12" class="st7" d="M727.6,0H561.4l-49,49.1V240c2.2,2.2,3.4,3.4,5.6,5.6h97c2.2-2.2,3.4-3.4,5.6-5.6v-30.6h107.1
		c2.2-2.2,3.4-3.4,5.6-5.6v-76c-2.2-2.2-3.4-3.4-5.6-5.6H620.5V98.1h107.1c2.2-2.2,3.4-3.4,5.6-5.6V5.6C731,3.4,729.8,2.2,727.6,0"
		/>
</g>
</svg>
