<?xml version="1.0" encoding="utf-8"?>
<!-- Generator: Adobe Illustrator 22.1.0, SVG Export Plug-In . SVG Version: 6.00 Build 0)  -->
<svg version="1.1" id="Layer_1" xmlns="http://www.w3.org/2000/svg" xmlns:xlink="http://www.w3.org/1999/xlink" x="0px" y="0px"
	 width="27.6px" height="27.6px" viewBox="0 0 27.6 27.6" style="enable-background:new 0 0 27.6 27.6;" xml:space="preserve">
<style type="text/css">
	.st0{clip-path:url(#SVGID_2_);}
	.st1{clip-path:url(#SVGID_4_);fill:#FFFFFF;}
	.st2{clip-path:url(#SVGID_6_);}
	.st3{clip-path:url(#SVGID_8_);fill:#FFFFFF;}
	.st4{clip-path:url(#SVGID_10_);}
	.st5{clip-path:url(#SVGID_12_);fill:#FFFFFF;}
	.st6{clip-path:url(#SVGID_14_);}
	.st7{clip-path:url(#SVGID_16_);fill:#FFFFFF;}
	.st8{clip-path:url(#SVGID_18_);}
	.st9{clip-path:url(#SVGID_20_);fill:#FFFFFF;}
</style>
<g>
	<g>
		<g>
			<defs>
				<path id="SVGID_1_" d="M21.4,14.3c-0.1,2-0.6,3.9-1.5,5.7c0.9,0.4,1.7,0.8,2.5,1.4l0.8,0.5c1.8-2.1,2.9-4.7,3-7.6
					C26.2,14.3,21.4,14.3,21.4,14.3z"/>
			</defs>
			<clipPath id="SVGID_2_">
				<use xlink:href="#SVGID_1_"  style="overflow:visible;"/>
			</clipPath>
			<g class="st0">
				<defs>
					<rect id="SVGID_3_" x="-421.2" y="-207.8" width="535.3" height="334.5"/>
				</defs>
				<clipPath id="SVGID_4_">
					<use xlink:href="#SVGID_3_"  style="overflow:visible;"/>
				</clipPath>
				<rect x="18.1" y="12.4" class="st1" width="10" height="11.3"/>
			</g>
		</g>
		<g>
			<defs>
				<path id="SVGID_5_" d="M2,25.6c-1.3-1.3-1.2-4,0.2-7.2c1.3,3.2,3.9,5.7,7,7C5.9,26.8,3.3,26.9,2,25.6z M21.8,22.2
					c-0.8-0.5-1.6-0.9-2.4-1.3c-0.9,1.3-1.9,2.6-3.2,3.7c-0.1,0.1-0.2,0.1-0.3,0.1c-0.2,0-0.3-0.1-0.4-0.2c-0.2-0.2-0.2-0.6,0.1-0.7
					c1.2-1,2.2-2.1,2.9-3.3c-1.3-0.5-2.7-0.7-4.1-0.8v4.4c0,0.3-0.2,0.5-0.5,0.5c-0.3,0-0.5-0.2-0.5-0.5v-4.4
					c-1.4,0.1-2.8,0.3-4,0.7c0.8,1.2,1.7,2.3,2.8,3.2c0.2,0.2,0.2,0.5,0.1,0.7c-0.1,0.1-0.2,0.2-0.4,0.2c-0.1,0-0.2,0-0.3-0.1
					c-1.3-1.1-2.4-2.3-3.2-3.7c-0.7,0.2-1.2,0.6-1.8,0.9c-0.2,0.2-0.6,0.1-0.7-0.2c-0.2-0.2-0.1-0.6,0.2-0.7C6.5,20.5,7,20.2,7.6,20
					c-0.9-1.8-1.5-3.7-1.6-5.7H5.5C5.2,14.3,5,14,5,13.8c0-0.3,0.2-0.5,0.5-0.5h0.5c0-0.2,0-0.5,0.1-0.8c0-0.3,0.3-0.5,0.6-0.5
					c0.3,0,0.5,0.3,0.5,0.6c0,0.2,0,0.4,0,0.6h6.1V8.8c-0.6,0-1.2-0.1-1.8-0.2C11.2,8.6,11,8.3,11,8c0-0.3,0.3-0.5,0.6-0.5
					c0.6,0.1,1.1,0.1,1.6,0.2V5.6c0-0.3,0.2-0.5,0.5-0.5c0.3,0,0.5,0.2,0.5,0.5v2.1c1.4-0.1,2.7-0.3,4-0.7c-0.6-1-1.4-1.9-2.3-2.7
					c-0.2-0.2-0.2-0.5,0-0.7c0.2-0.2,0.5-0.2,0.7,0c1,0.9,1.9,2,2.6,3.1c0.9-0.4,1.7-0.8,2.5-1.3l0.6-0.4c-1.2-1.1-2.5-2-4-2.7
					c3.2-1.4,5.8-1.6,7.2-0.2c1.3,1.3,1.2,4-0.2,7.2c-0.5-1.3-1.3-2.5-2.2-3.6l-0.8,0.5c-0.8,0.6-1.7,1-2.5,1.4
					c0.9,1.8,1.5,3.7,1.6,5.7h4.7c0-0.9-0.2-1.7-0.4-2.5C28,6.5,28.1,3,26.3,1.2c-1.8-1.8-5.4-1.5-9.4,0.5c-1-0.2-2.1-0.4-3.1-0.4
					c-3.4,0-6.6,1.4-9,3.9c-0.2,0.2-0.2,0.6,0,0.7c0.2,0.2,0.6,0.2,0.7,0c2.2-2.2,5.1-3.5,8.2-3.5c0.6,0,1.1,0,1.7,0.1
					c-2.4,1.4-4.9,3.3-7.3,5.7C7.6,8.7,7.1,9.3,6.6,9.8c-6,6.7-8.2,13.6-5.4,16.5c0.8,0.8,2,1.2,3.4,1.2c1.7,0,3.8-0.6,6.1-1.7
					c1,0.2,2,0.4,3.1,0.4c3.4,0,6.4-1.3,8.7-3.6L21.8,22.2z"/>
			</defs>
			<clipPath id="SVGID_6_">
				<use xlink:href="#SVGID_5_"  style="overflow:visible;"/>
			</clipPath>
			<g class="st2">
				<defs>
					<rect id="SVGID_7_" x="-421.2" y="-207.8" width="535.3" height="334.5"/>
				</defs>
				<clipPath id="SVGID_8_">
					<use xlink:href="#SVGID_7_"  style="overflow:visible;"/>
				</clipPath>
				<rect x="-1.9" y="-1.9" class="st3" width="31.3" height="31.3"/>
			</g>
		</g>
		<g>
			<defs>
				<path id="SVGID_9_" d="M14.3,18.7c1.6,0.1,3.2,0.3,4.6,0.9c0.9-1.7,1.4-3.5,1.5-5.3h-6.1V18.7z"/>
			</defs>
			<clipPath id="SVGID_10_">
				<use xlink:href="#SVGID_9_"  style="overflow:visible;"/>
			</clipPath>
			<g class="st4">
				<defs>
					<rect id="SVGID_11_" x="-421.2" y="-207.8" width="535.3" height="334.5"/>
				</defs>
				<clipPath id="SVGID_12_">
					<use xlink:href="#SVGID_11_"  style="overflow:visible;"/>
				</clipPath>
				<rect x="12.4" y="12.4" class="st5" width="9.8" height="9"/>
			</g>
		</g>
		<g>
			<defs>
				<path id="SVGID_13_" d="M13.3,18.7v-4.4H7.2c0.1,1.8,0.6,3.6,1.5,5.3C10.1,19.1,11.7,18.8,13.3,18.7z"/>
			</defs>
			<clipPath id="SVGID_14_">
				<use xlink:href="#SVGID_13_"  style="overflow:visible;"/>
			</clipPath>
			<g class="st6">
				<defs>
					<rect id="SVGID_15_" x="-421.2" y="-207.8" width="535.3" height="334.5"/>
				</defs>
				<clipPath id="SVGID_16_">
					<use xlink:href="#SVGID_15_"  style="overflow:visible;"/>
				</clipPath>
				<rect x="5.3" y="12.4" class="st7" width="9.8" height="9"/>
			</g>
		</g>
		<g>
			<defs>
				<path id="SVGID_17_" d="M14.3,8.8v4.4h6.1c-0.1-1.8-0.6-3.6-1.5-5.3C17.4,8.5,15.9,8.7,14.3,8.8z"/>
			</defs>
			<clipPath id="SVGID_18_">
				<use xlink:href="#SVGID_17_"  style="overflow:visible;"/>
			</clipPath>
			<g class="st8">
				<defs>
					<rect id="SVGID_19_" x="-421.2" y="-207.8" width="535.3" height="334.5"/>
				</defs>
				<clipPath id="SVGID_20_">
					<use xlink:href="#SVGID_19_"  style="overflow:visible;"/>
				</clipPath>
				<rect x="12.4" y="6.1" class="st9" width="9.8" height="9"/>
			</g>
		</g>
	</g>
</g>
</svg>
