<?xml version="1.0" encoding="utf-8"?>
<!-- Generator: Adobe Illustrator 22.1.0, SVG Export Plug-In . SVG Version: 6.00 Build 0)  -->
<svg version="1.1" id="Layer_1" xmlns="http://www.w3.org/2000/svg" xmlns:xlink="http://www.w3.org/1999/xlink" x="0px" y="0px"
	 width="90.8px" height="63.7px" viewBox="0 0 90.8 63.7" style="enable-background:new 0 0 90.8 63.7;" xml:space="preserve">
<style type="text/css">
	.st0{fill:#FFFFFF;stroke:#000000;stroke-width:0.75;}
	.st1{fill:#FFFFFF;}
</style>
<desc>Created with Sketch.</desc>
<g id="MVP-v2">
	<g id="Mode-View---Base" transform="translate(-222.000000, -346.000000)">
		<g id="Content-Area" transform="translate(110.000000, 295.000000)">
			<g id="Card---VOD" transform="translate(20.000000, 20.000000)">
				<g id="Group" transform="translate(44.850000, 32.120000)">
					<g id="icon-vod" transform="translate(47.775000, 0.000000)">
						<path id="Shape" class="st0" d="M89.8,36.3C89.8,43.8,83.6,50,76,50c-1.5,0-2.9-0.2-4.3-0.7c-0.8-0.3-1.2-1.1-1-1.9
							c0.3-0.8,1.1-1.2,1.9-1c1.1,0.4,2.2,0.5,3.4,0.5c5.9,0,10.7-4.8,10.7-10.7c0-5.5-4.2-10.1-9.7-10.6c0,0.2,0,0.5,0,0.8
							c0,6.3-2.2,12.4-6.2,17.3c-0.3,0.4-0.7,0.5-1.2,0.5c-0.3,0-0.7-0.1-1-0.3c-0.6-0.5-0.7-1.5-0.2-2.1c3.6-4.3,5.5-9.8,5.5-15.4
							c0-13.3-10.8-24.2-24.3-24.2C39,2.2,29.3,9.3,26.3,19.5c-0.7,2.2-1,4.5-1,6.8c0,0.8-0.7,1.5-1.5,1.5s-1.5-0.7-1.5-1.5
							c0-1.8,0.2-3.5,0.5-5.3c-2.4-1.3-3.5-1.8-6.4-1.8C9,19.3,2.8,25.5,2.8,33.2C2.8,40.8,9,47,16.6,47c1.9,0,3.7-0.4,5.4-1.1
							c0.8-0.3,1.6,0,2,0.8c0.3,0.8,0,1.7-0.8,2c-2.1,0.9-4.3,1.3-6.5,1.3c-9.4,0-17-7.6-17-16.8c0-9.3,7.5-16.8,16.9-16.8
							c3.3,0,4.9,0.7,7.2,1.8C27.3,7,38-0.7,49.8-0.7c13.7,0,25.2,10.2,27,23.4C84,23,89.8,29,89.8,36.3z"/>
						<path id="Shape_1_" class="st0" d="M54.9,62.2H37.1c-6.3,0-11.3-5.1-11.3-11.3v-6.2c0-6.8,3.9-11.3,9.7-11.3h20.3
							c6,0,10.5,4.9,10.5,11.3v6.2C66.3,57.1,61.2,62.2,54.9,62.2z M35.4,36.3c-4.9,0-6.7,4.3-6.7,8.3v6.2c0,4.6,3.7,8.3,8.3,8.3h18
							c4.6,0,8.3-3.7,8.3-8.3v-6.2c0-4.8-3.2-8.3-7.5-8.3H35.4z"/>
						<path id="Shape_2_" class="st1" d="M53.4,46.9l-10-5c-0.2-0.1-0.3-0.1-0.4-0.1c-0.2,0-0.3,0-0.5,0.2c-0.3,0.2-0.4,0.5-0.4,0.8
							v10c0,0.3,0.2,0.6,0.4,0.8c0.3,0.2,0.6,0.2,0.9,0.1l10-5c0.3-0.2,0.5-0.5,0.5-0.9C54,47.4,53.7,47,53.4,46.9z M43.9,51.2v-7
							l7,3.5L43.9,51.2z"/>
					</g>
				</g>
			</g>
		</g>
	</g>
</g>
</svg>
