<?xml version="1.0" encoding="utf-8"?>
<!-- Generator: Adobe Illustrator 22.1.0, SVG Export Plug-In . SVG Version: 6.00 Build 0)  -->
<svg version="1.1" id="Layer_1" xmlns="http://www.w3.org/2000/svg" xmlns:xlink="http://www.w3.org/1999/xlink" x="0px" y="0px"
	 width="162.8px" height="33.9px" viewBox="0 0 162.8 33.9" style="enable-background:new 0 0 162.8 33.9;" xml:space="preserve">
<style type="text/css">
	.st0{fill:#231F20;}
</style>
<g>
	<g>
		<path class="st0" d="M15,3.4c2.2-2.9,5.3-2.9,5.3-2.9s0.5,2.7-1.7,5.3c-2.3,2.8-5,2.3-5,2.3S13.1,5.9,15,3.4L15,3.4z M13.9,10.1
			c1.1,0,3.2-1.6,6-1.6c4.7,0,6.6,3.3,6.6,3.3s-3.6,1.8-3.6,6.3c0,5.1,4.5,6.8,4.5,6.8s-3.1,8.9-7.4,8.9c-2,0-3.5-1.3-5.5-1.3
			c-2.1,0-4.2,1.4-5.5,1.4C4.9,33.9,0,25.5,0,18.7C0,12.1,4.2,8.6,8.1,8.6C10.6,8.6,12.6,10.1,13.9,10.1z"/>
	</g>
	<g>
		<path d="M41.9,0.5c1.4,0,2.5,1.1,2.5,2.5c0,1.4-1.1,2.5-2.5,2.5c-1.4,0-2.5-1.1-2.5-2.5C39.4,1.6,40.5,0.5,41.9,0.5z M40,8.8h3.9
			v24H40V8.8z"/>
		<path d="M60.4,1.6c5.9,0,9.9,3.9,9.9,9.7c0,5.8-4,9.7-9.9,9.7H53v11.8h-4V1.6H60.4z M53,17.5h4.7c5.3,0,8.5-1.1,8.5-6.2
			c0-3.9-2.2-6.2-6.1-6.2H53V17.5z"/>
		<path d="M72.8,0h3.9v12h0.1c0.9-1.5,3.1-3.6,7-3.6c5,0,8.6,3.2,8.6,9v15.4h-3.9V18.1c0-4-2.4-6.1-5.9-6.1c-4.1,0-5.9,2.9-5.9,6.2
			v14.6h-3.9V0z"/>
		<path d="M116.3,19.7v2.1c0,6.5-3.5,11.4-10.3,11.4s-10.3-4.8-10.3-11.4v-2.1c0-6.4,3.6-11.3,10.3-11.3
			C112.8,8.4,116.3,13.3,116.3,19.7z M99.7,19.8v1.9c0,4.9,2.3,8.1,6.4,8.1c4.1,0,6.3-3.2,6.3-8.1v-1.9c0-4.9-2.2-8.1-6.3-8.1
			C101.9,11.8,99.7,14.9,99.7,19.8z"/>
		<path d="M120,8.8h3.9V12h0.1c0.9-1.5,3.1-3.6,7-3.6c4.9,0,8.6,3.2,8.6,9v15.4h-3.9V18.1c0-4-2.4-6.1-5.9-6.1
			c-4.1,0-5.9,2.9-5.9,6.2v14.6H120V8.8z"/>
		<path d="M143,22v-2.7c0-6.3,3.6-10.8,9.9-10.8c6.3,0,9.9,4.5,9.9,11.1v2.2h-15.9v0.4c0,4.6,2.3,7.7,6.2,7.7c2.8,0,4.6-1.4,5.4-3.6
			h3.9c-0.9,4-4.1,6.9-9.4,6.9C146.8,33.2,143,28.8,143,22z M158.9,18.6L158.9,18.6c0-3.9-2.4-6.9-5.9-6.9c-3.7,0-6,3-6,6.8v0.1
			H158.9z"/>
	</g>
</g>
</svg>
