<?xml version="1.0" encoding="utf-8"?>
<!-- Generator: Adobe Illustrator 22.1.0, SVG Export Plug-In . SVG Version: 6.00 Build 0)  -->
<svg version="1.1" id="Layer_1" xmlns="http://www.w3.org/2000/svg" xmlns:xlink="http://www.w3.org/1999/xlink" x="0px" y="0px"
	 width="1080px" height="864px" viewBox="0 0 1080 864" style="enable-background:new 0 0 1080 864;" xml:space="preserve">
<style type="text/css">
	.st0{fill-rule:evenodd;clip-rule:evenodd;fill:#FFF203;}
</style>
<polygon class="st0" points="816,384 816,264 840,264 840,0 0,0 0,264 24,264 24,480 240,480 240,600 216,600 216,864 1056,864 
	1056,648 1080,648 1080,384 "/>
<g>
	<path d="M418.1,517.7c24.7,0,27.9,23,28.3,38.8h45.3c-0.8-24.7-8.1-45.7-22.2-60.2c-12.1-12.1-29.1-19.4-51.3-19.4
		c-26.7,0-44.1,10.5-55.8,24.7c-19,22.6-21,54.2-21,122.5c0,68.3,2,99.9,21,122.5c11.7,14.2,29.1,24.7,55.8,24.7
		c43.2,0,73.6-27.5,73.6-80.1v-79.7h-73.6v37.2h28.3v44.9c0,19.8-8.5,36.8-28.3,36.8c-10.9,0-17.4-4.4-21.4-10.9
		c-8.9-13.7-10.1-42.9-10.1-95.4c0-52.6,1.2-81.7,10.1-95.4C400.7,522.1,407.2,517.7,418.1,517.7z"/>
	<polygon points="587.9,767.9 708.8,767.9 708.8,727.1 633.2,727.1 633.2,643.4 698.2,643.4 698.2,602.6 633.2,602.6 633.2,520.9 
		708.8,520.9 708.8,480.1 587.9,480.1 	"/>
	<polygon points="909.1,480.1 909.1,651.1 841.6,480.1 801.2,480.1 801.2,767.9 846.5,767.9 846.5,596.9 914.4,767.9 954.4,767.9 
		954.4,480.1 	"/>
	<g>
		<path d="M189.3,93.2c-26.7,0-44.1,10.5-55.8,24.7c-19,23-21,54.2-21,122.5c0,68.3,2,99.5,21,122.5c11.7,14.1,29.1,24.7,55.8,24.7
			s44.1-10.5,55.8-24.7c19.4-22.6,21-54.2,21-122.5c0-68.3-1.6-99.9-21-122.5C233.3,103.8,215.9,93.2,189.3,93.2z M211.1,335.8
			c-4,6.5-10.9,10.9-21.8,10.9c-10.9,0-17.4-4.4-21.4-10.9c-8.5-13.7-10.1-42.9-10.1-95.4c0-52.6,1.6-81.7,10.1-95.4
			c4-6.5,10.5-10.9,21.4-10.9c10.9,0,17.8,4.4,21.8,10.9c8.5,13.7,9.7,42.9,9.7,95.4C220.8,293,219.6,322.1,211.1,335.8z"/>
		<polygon points="497,96.5 447.3,96.5 418.6,192.7 389.9,96.5 340.1,96.5 392.7,235.2 335.7,384.4 385.4,384.4 418.6,280.9 
			451.7,384.4 501.4,384.4 443.2,235.2 		"/>
		<polygon points="648.8,210.5 620.5,96.5 570.4,96.5 626.2,271.6 626.2,384.4 671.4,384.4 671.4,271.6 727.2,96.5 677.5,96.5 		"/>
	</g>
</g>
</svg>
