<?xml version="1.0" encoding="utf-8"?>
<!-- Generator: Adobe Illustrator 22.1.0, SVG Export Plug-In . SVG Version: 6.00 Build 0)  -->
<svg version="1.1" id="Layer_1" xmlns="http://www.w3.org/2000/svg" xmlns:xlink="http://www.w3.org/1999/xlink" x="0px" y="0px"
	 width="1000px" height="844px" viewBox="0 0 1000 844" style="enable-background:new 0 0 1000 844;" xml:space="preserve">
<style type="text/css">
	.st0{fill:#A71916;}
	.st1{fill:#FF0000;}
	.st2{fill:#E20000;}
</style>
<g>
	<path class="st0" d="M603.1,341.2c2,118-78.8,231.3-191.3,266.6c-11.3,2.9-15.5,4-15.5-3.9V272.4H244.6c-2.4,0-4.4-2-4.4-4.4V75.9
		c0-2.4,2-4.4,4.4-4.4h86.3C495.2,71.5,603.1,212.2,603.1,341.2L603.1,341.2z"/>
	<path class="st1" d="M396.4,341.2c-2,118,78.8,231.3,191.3,266.6c11.3,2.9,15.5,4,15.5-3.9V272.4h151.7c2.4,0,4.4-2,4.4-4.4V75.9
		c0-2.4-2-4.4-4.4-4.4h-86.3C504.3,71.5,396.4,212.2,396.4,341.2L396.4,341.2z"/>
	<path class="st2" d="M499.9,559.8c-136.9-112.6-138.4-316.7,0-428.9C638.3,243.1,636.8,447.2,499.9,559.8L499.9,559.8z"/>
	<path d="M181.9,769.8H244v-4c0-7.1-4.2-11.3-11.3-11.3h-31.5V728h30.7v-15.4h-30.7v-23.8h29.7c7.2,0,11.3-4.2,11.3-11.3v-4h-60.3
		L181.9,769.8L181.9,769.8z"/>
	<path d="M339.2,769.8h62.1v-4c0-7.1-4.2-11.3-11.3-11.3h-31.5V728h30.7v-15.4h-30.7v-23.8h29.7c7.2,0,11.3-4.2,11.3-11.3v-4h-60.3
		L339.2,769.8L339.2,769.8z"/>
	<path d="M754.3,688.6c27.2-3.5,36.9,7.6,36.9,33.7c0,25.8-11.8,34.5-36.9,32.5l-0.3,0v-66.1L754.3,688.6L754.3,688.6z M734.7,769.8
		h29.4c31,0,47-18.6,47-48.9c0-51.5-36.9-49.6-76.4-47.3L734.7,769.8L734.7,769.8z"/>
	<path d="M459.1,749.5h20.8l21.3-42.2v62.5h18.8v-96.2h-13.5c-9,0-10.9,5.2-14.5,12.1l-22.6,45.8l-22.1-45.8
		c-3.5-6.8-5.4-12.2-14.2-12.2h-13.2v96.2h18.4v-62.5L459.1,749.5L459.1,749.5z"/>
	<path d="M696,769.8h17.3v-84.9c0-7.1-4.2-11.3-11.3-11.3h-7.3v65.6l-33.2-53.7c-3-4.8-6.6-11.9-13.1-11.9h-11.7v96.2h18.4v-63
		L696,769.8L696,769.8z"/>
	<path d="M322.4,769.8v-4c0-7.1-4.2-11.3-11.3-11.3h-29.7v-69.6c0-7.1-4.2-11.3-11.3-11.3h-8v96.2L322.4,769.8L322.4,769.8z"/>
	<path d="M871.6,687c18.9,0,23.2,20.5,23.2,35.6c0,15.4-4.6,34.4-23.4,34.4c-18.8,0-23.4-20.2-23.4-35.4
		C848,706.3,852.7,687,871.6,687L871.6,687z M871.8,671.2c-29.9,0-44.1,22.9-44.1,50.6c0,28.6,12.9,50.6,43.9,50.6
		c31,0,43.7-22.2,43.7-50.6C915.2,694.3,901.6,671.2,871.8,671.2L871.8,671.2z"/>
	<path d="M541.2,673.6v61.2c0,24.6,10.9,37.4,36.6,37.4c24.8,0,37.9-12.9,37.9-37.4c0-16.6,0-33.2,0-49.8c0-7.1-4.2-11.3-11.3-11.3
		h-7.8c0,21.2,0,42.5,0,63.7c0,10.7-7.5,18.6-18.4,18.6c-11.3,0-18.1-7.5-18.1-18.6v-52.4c0-7.2-4.2-11.3-11.3-11.3L541.2,673.6
		L541.2,673.6z"/>
	<path d="M134.8,769.8v-80.4h19.4c7.2,0,11.3-4.2,11.3-11.3v-4.6H96.1c-7.2,0-11.3,4.2-11.3,11.3v4.6h30.7v80.4H134.8L134.8,769.8z"
		/>
</g>
</svg>
