<?xml version="1.0" encoding="utf-8"?>
<!-- Generator: Adobe Illustrator 22.1.0, SVG Export Plug-In . SVG Version: 6.00 Build 0)  -->
<svg version="1.1" id="Layer_1" xmlns="http://www.w3.org/2000/svg" xmlns:xlink="http://www.w3.org/1999/xlink" x="0px" y="0px"
	 width="162.8px" height="33.9px" viewBox="0 0 162.8 33.9" style="enable-background:new 0 0 162.8 33.9;" xml:space="preserve">
<style type="text/css">
	.st0{fill:#231F20;}
</style>
<g>
	<g>
		<g>
			<g>
				<path class="st0" d="M59.4,3.1c2.2-2.9,5.3-2.9,5.3-2.9s0.5,2.7-1.7,5.3c-2.3,2.8-5,2.3-5,2.3S57.4,5.7,59.4,3.1L59.4,3.1z
					 M58.2,9.8c1.1,0,3.2-1.6,6-1.6c4.7,0,6.6,3.3,6.6,3.3s-3.6,1.8-3.6,6.3c0,5.1,4.5,6.8,4.5,6.8s-3.1,8.9-7.4,8.9
					c-2,0-3.5-1.3-5.5-1.3c-2.1,0-4.2,1.4-5.5,1.4c-3.9,0-8.8-8.4-8.8-15.2c0-6.7,4.2-10.1,8.1-10.1C54.9,8.4,56.9,9.8,58.2,9.8z"/>
			</g>
		</g>
	</g>
	<g>
		<path d="M92.4,3.9v5.5h4.4v3.1h-4.4v13.6c0,2.1,0.9,3,2.8,3c0.4,0,1.3-0.1,1.6-0.1v3.2c-0.5,0.1-1.5,0.2-2.4,0.2
			c-4.2,0-5.8-1.7-5.8-6.1V12.6h-3.4V9.5h3.4V3.9H92.4z"/>
		<path d="M110.1,32.3h-3.9L97.8,9.5h4l6.3,18.8h0.1l6.3-18.8h4L110.1,32.3z"/>
	</g>
</g>
</svg>
