<?xml version="1.0" encoding="utf-8"?>
<!-- Generator: Adobe Illustrator 22.1.0, SVG Export Plug-In . SVG Version: 6.00 Build 0)  -->
<svg version="1.1" id="Layer_1" xmlns="http://www.w3.org/2000/svg" xmlns:xlink="http://www.w3.org/1999/xlink" x="0px" y="0px"
	 width="85px" height="63.5px" viewBox="0 0 85 63.5" style="enable-background:new 0 0 85 63.5;" xml:space="preserve">
<style type="text/css">
	.st0{fill:none;}
	.st1{fill:#FFFFFF;}
	.st2{fill:#F26F21;}
	.st3{fill:#C8234A;}
	.st4{fill:#645FA9;}
	.st5{fill:#0088CF;}
	.st6{fill:#0DB04B;}
	.st7{fill:#FCB813;}
</style>
<g>
	<path class="st0" d="M40.3,43.8l-0.1-0.1L40.3,43.8z"/>
	<g>
		<path class="st1" d="M75.6,33.2c-1.4-3.2-4.6-5-8.1-4.8c2.2-1.9,3.2-4.5,2.9-7.5c-0.4-2.7-2.5-5.4-5.1-6.2
			c-2.7-1.1-5.8-0.4-7.9,1.5h-0.1c0.9-2.4,0.4-5.4-1-7.4c-1.8-2.4-4.5-3.7-7.3-3.3c-2.7,0.3-5.5,2.5-6.5,5.2
			c-0.3-0.5-0.5-1.1-0.9-1.7c-1.9-2.8-5-4-8.3-3.3c-2.5,0.5-4.9,2.7-5.6,5.2c-0.6,1.6-0.4,3.8,0,5.3c-2.2-2.1-5.7-2.8-8.5-1.6
			c-2.4,1.1-4.3,3.6-4.7,6.2c-0.4,3,0.7,5.8,3.2,7.5c-2.7-0.3-5,0.5-6.9,2.4c-2,2.2-2.8,5.2-1.9,8.1c0.8,2.9,3.7,5.4,6.7,5.6h52.2
			c1.3,0,2.5-0.2,3.6-0.7c1-0.4,1.9-1.1,2.7-2C76.5,39.7,76.9,36,75.6,33.2z"/>
		<g>
			<polygon class="st0" points="38.2,39 38.2,39 37.7,37.7 			"/>
			<path class="st2" d="M29.1,19.6c-0.4-0.9-0.9-1.8-1.6-2.5c-1.8-1.9-4.6-2.5-7.1-1.7c-2.5,0.8-4.5,3.3-4.8,5.9
				c-0.3,2.6,0.6,4.8,2.5,6.5l20.1,13.7L29.1,19.6z"/>
			<path class="st3" d="M42,11.7c-0.5-2.3-2.7-4.5-4.9-5c-2.7-0.7-5.3,0.2-7.2,2.2c-1.7,2-2.2,5.1-1.1,7.5l8.9,21.3l0.5,1.3l4-24.4
				C42.3,13.6,42.3,12.6,42,11.7z"/>
			<path class="st4" d="M56.5,16.4c0.4-0.9,0.5-2,0.6-3c0-2.7-1.8-5.4-4.3-6.5c-2-0.9-4.6-0.6-6.4,0.5c-2.2,1.5-3.4,3.9-3.2,6.5
				l2.7,0c0.2,0.1,0.6,0.2,0.5,0.5L45,15.3c-0.9,0.6-1.4,1.6-1.2,2.7l2.9,18.5L47,39L56.5,16.4z"/>
			<path class="st5" d="M46.8,41.5l19.3-12.9c1-0.6,1.9-1.6,2.6-2.6c1.4-2.2,1.3-5.6-0.1-7.7c-1.4-2.1-3.6-3.3-6-3.3
				c-2.6,0-4.9,1.5-6.2,3.8L53.3,26L46.8,41.5z"/>
			<path class="st6" d="M67.2,29.5c-1.1,0.2-1.9,0.6-2.7,1.1L44.9,43.8h24.2c2.5-0.3,4.4-1.6,5.6-3.9c1.2-2.3,0.9-5.6-0.7-7.7
				C72.3,30.1,69.8,29,67.2,29.5z"/>
			<path class="st7" d="M17.9,29.5c-2.6-0.5-5.1,0.5-6.9,2.7c-1.6,2.1-1.9,5.4-0.7,7.7c1.2,2.3,3.1,3.7,5.6,3.9h24.2l-0.1-0.1
				l-19.4-13C19.9,30.2,19,29.7,17.9,29.5z"/>
		</g>
	</g>
	<g>
		<g>
			<path class="st1" d="M19.8,50c-0.3-1.2-1.3-1.6-2.4-1.7c-3.7-0.4-4.3,2.4-4.3,3.6c0,2,0.6,3.7,4.2,3.7c0.7,0,2.5-0.7,2.5-1.8h5.2
				c-0.2,3.3-5.8,4.1-8.2,4.1c-5.1,0-9.4-1-9.2-5.9c0.1-3.6,3.5-6.1,10.2-5.9c3.8,0.1,7.3,1.2,7.3,3.9H19.8z"/>
			<path class="st1" d="M72.2,50c-0.3-1.2-1.3-1.6-2.4-1.7c-3.7-0.4-4.3,2.4-4.3,3.6c0,2,0.6,3.7,4.2,3.7c0.7,0,2.5-0.7,2.5-1.8h5.2
				c-0.2,3.3-5.8,4.1-8.2,4.1c-5.1,0-9.4-1-9.2-5.9c0.1-3.6,3.5-6,10.2-5.9c3.7,0.1,7.3,1.2,7.3,3.9H72.2z"/>
			<path class="st1" d="M26,46.3h6.8l5.8,8.1l0,0v-8.1H43v11.3h-6.5l-6.1-8.1h0v8.1H26V46.3z"/>
			<path class="st1" d="M44.3,46.3h8.2c4,0,6.3,1.1,6.3,2.8c0,1-1,2.2-3.2,2.6v0c2.6,0.1,3.6,1.8,3.6,2.8c0,2-2.3,3.1-6.7,3.1h-8.2
				V46.3z M49.1,50.7h1.4c2.1,0,3.2-0.2,3.2-1.1c0-0.9-0.9-1.2-2.8-1.2h-1.8V50.7z M49.1,55.2h1.4c2.6,0,3.5-0.3,3.5-1.1
				c0-1-1.2-1.2-3.1-1.2h-1.8V55.2z"/>
		</g>
	</g>
</g>
</svg>
