<?xml version="1.0" encoding="utf-8"?>
<!-- Generator: Adobe Illustrator 22.1.0, SVG Export Plug-In . SVG Version: 6.00 Build 0)  -->
<svg version="1.1"
	 id="svg2" inkscape:version="0.91 r13725" sodipodi:docname="USA Network.svg" xmlns:cc="http://creativecommons.org/ns#" xmlns:dc="http://purl.org/dc/elements/1.1/" xmlns:inkscape="http://www.inkscape.org/namespaces/inkscape" xmlns:rdf="http://www.w3.org/1999/02/22-rdf-syntax-ns#" xmlns:sodipodi="http://sodipodi.sourceforge.net/DTD/sodipodi-0.dtd" xmlns:svg="http://www.w3.org/2000/svg"
	 xmlns="http://www.w3.org/2000/svg" xmlns:xlink="http://www.w3.org/1999/xlink" x="0px" y="0px" width="650px" height="347.2px"
	 viewBox="0 0 650 347.2" style="enable-background:new 0 0 650 347.2;" xml:space="preserve">
<style type="text/css">
	.st0{fill:#FFFFFF;}
</style>
<sodipodi:namedview  bordercolor="#666666" borderopacity="1" fit-margin-bottom="0" fit-margin-left="0" fit-margin-right="0" fit-margin-top="0" gridtolerance="10" guidetolerance="10" id="namedview30" inkscape:current-layer="svg2" inkscape:cx="229.54749" inkscape:cy="159.37559" inkscape:pageopacity="0" inkscape:pageshadow="2" inkscape:window-height="931" inkscape:window-maximized="1" inkscape:window-width="1680" inkscape:window-x="0" inkscape:window-y="1" inkscape:zoom="1" objecttolerance="10" pagecolor="#ffffff" showgrid="false">
	</sodipodi:namedview>
<path id="path10" inkscape:connector-curvature="0" class="st0" d="M136.9,0h66.9c-28.6,26.9-39.7,69.5-19.4,104.6
	c11.2,19.4,31.1,32.3,57.1,40.7c23.4,7.6,44.9,13.5,44.9,35.8c0,15.3-13.7,26.3-32.2,25.2c-16.4-1.1-35-10-53.8-27
	C187,216.3,152.1,238,101.5,238C36.6,238,0,199.4,0,141.4V0h69.7v140.7c0,20.4,15.1,37.1,33.6,37.1l0,0c18.5,0,33.6-16.7,33.6-37.1
	V0L136.9,0z"/>
<path id="path2993" class="st0" d="M417.3,0c-38.4,0-70.6,22.7-88.3,56.7C311,39.7,291.1,31,275.7,31c-16.5,0-29.4,11.8-29.4,26
	c0,24.7,25.1,29.5,51.4,38.5c20.9,7.1,37.9,16.2,50.3,36.7c13.7,22.8,15.8,52.3,0.4,76.5c17.9,18.3,41.8,29.4,68.9,29.4
	c22.5,0,42.8-7.7,59.3-20.7v18.2h66.5V1.9h-66.5v19C460,7.7,439.7,0,417.3,0z M431.5,60.2c27.9,0,48.9,26.3,48.9,58.8
	s-20.7,58.7-48.9,58.7s-48.9-26.3-48.9-58.7S403.5,60.2,431.5,60.2z"/>
<path id="path14" inkscape:connector-curvature="0" class="st0" d="M278.6,344.7v-48.1h12.6l0.1,5.1c3.6-4.9,9.8-7.3,15.9-7.3
	c7.4,0,14.6,3.9,16,12.2c0.3,1.7,0.4,4.9,0.4,8.5v1.5v28.1h-12.9v-22.4c0-5.9-0.6-9.8-1.9-11.7c-1.3-1.9-3.4-2.8-6.5-2.8
	c-1.8,0-3.4,0.4-4.9,1.2c-1.5,0.8-2.7,1.9-3.7,3.4c-0.8,1.2-1.3,2.5-1.7,3.9c-0.3,1.5-0.5,3.7-0.5,6.7v1.9v19.8L278.6,344.7
	L278.6,344.7z"/>
<path id="path16" inkscape:connector-curvature="0" class="st0" d="M367.1,315.9c-0.4-3.1-1.4-5.4-3.2-7c-1.8-1.6-4.1-2.4-7.2-2.4
	c-3,0-5.5,0.8-7.3,2.4c-1.8,1.6-3,3.9-3.5,7H367.1L367.1,315.9z M380.4,324.4h-34.9c0.5,3.5,1.8,6.1,3.7,7.9
	c1.9,1.7,4.5,2.6,7.7,2.6c2.5,0,4.6-0.5,6.4-1.5c1.7-1,3.2-2.4,4.4-4.4l9.6,7.7c-2.2,3.2-4.8,5.6-7.8,7.3c-3.6,2.1-7.9,3.1-12.8,3.1
	c-7.5,0-13.5-2.4-17.9-7c-4.4-4.7-6.6-11-6.6-18.9c0-7.6,2.3-13.9,6.9-18.8c4.6-4.9,10.5-7.4,17.7-7.4c7.4,0,13.2,2.3,17.5,6.9
	c4.3,4.6,6.4,10.9,6.4,18.9c0,0.4,0,0.9,0,1.4C380.6,322.7,380.5,323.4,380.4,324.4L380.4,324.4z"/>
<path id="path18" inkscape:connector-curvature="0" class="st0" d="M392.7,307.5h-6.2v-10.9h6.2v-14h12.9v14h12.3v10.9h-12.3v23.1
	c0,6.4,10.1,4.7,12.3,2.8v10.2c-2.5,2.2-7.9,2.8-12.3,2.8c-7.1,0-12.9-4.2-12.9-10.6V307.5L392.7,307.5z"/>
<path id="path20" inkscape:connector-curvature="0" class="st0" d="M470.6,296.6l7.9,29.7l9.4-29.7h14l-15.3,48.1h-13.7l-9.4-29.9
	l-9.2,29.9h-13.7l-15.3-48.1h14l9.3,29.6l7.9-29.6H470.6L470.6,296.6z"/>
<path id="path22" inkscape:connector-curvature="0" class="st0" d="M543.1,320.7c0-3.9-1.2-7.1-3.5-9.4c-2.3-2.3-5.4-3.5-9.3-3.5
	c-3.9,0-7,1.2-9.3,3.5c-2.3,2.3-3.4,5.5-3.4,9.4c0,3.9,1.1,7,3.4,9.4c2.3,2.4,5.4,3.5,9.3,3.5c3.9,0,7-1.2,9.3-3.5
	C541.9,327.8,543.1,324.7,543.1,320.7L543.1,320.7z M557.5,320.8c0,7.4-2.6,13.5-7.7,18.5c-5.1,4.9-11.6,7.3-19.5,7.3
	c-7.9,0-14.5-2.4-19.6-7.3c-5.2-4.9-7.7-11.1-7.7-18.5c0-7.3,2.6-13.5,7.8-18.5c5.2-4.9,11.7-7.4,19.6-7.4c7.9,0,14.4,2.4,19.5,7.3
	C555,307.2,557.5,313.3,557.5,320.8z"/>
<path id="path24" inkscape:connector-curvature="0" class="st0" d="M578.1,303.3c5-6.8,13-8.4,16.9-7.9v13.4
	c-9-0.2-15.9,4.8-16.1,18.1l-0.3,17.8h-12.9v-48.1h12.7L578.1,303.3L578.1,303.3z"/>
<path id="path26" inkscape:connector-curvature="0" class="st0" d="M603.7,277.3h12.9v38.2l16.6-18.9h15.9l-17.6,18.3l18.5,29.8
	h-14.4L622.8,324l-6.2,6.4v14.3h-12.9V277.3L603.7,277.3z"/>
</svg>
