<?xml version="1.0" encoding="utf-8"?>
<!-- Generator: Adobe Illustrator 22.1.0, SVG Export Plug-In . SVG Version: 6.00 Build 0)  -->
<svg version="1.1" id="Layer_1" xmlns="http://www.w3.org/2000/svg" xmlns:xlink="http://www.w3.org/1999/xlink" x="0px" y="0px"
	 width="90.8px" height="63.7px" viewBox="0 0 90.8 63.7" style="enable-background:new 0 0 90.8 63.7;" xml:space="preserve">
<style type="text/css">
	.st0{fill:#FFFFFF;}
	.st1{fill:#FFFFFF;stroke:#000000;stroke-width:0.25;stroke-linecap:round;stroke-linejoin:round;stroke-miterlimit:10;}
</style>
<desc>Created with Sketch.</desc>
<g id="Version-2">
	<g id="Mode-View---Step-3" transform="translate(-529.000000, -342.000000)">
		<g id="Content-Area_1_" transform="translate(110.000000, 295.000000)">
			<g id="Card---Live" transform="translate(313.000000, 20.000000)">
				<g id="Group_2_" transform="translate(79.950000, 27.253333)">
					<g id="logo-live" transform="translate(26.325000, 0.000000)">
						<g id="Group_3_" transform="translate(0.000000, 27.253333)">
							<path id="Shape_7_" class="st0" d="M52.7,16.3L42.1,11c-0.1-0.1-0.3-0.1-0.4-0.1c-0.1,0-0.4,0-0.5,0.1
								c-0.3,0.1-0.5,0.5-0.5,0.8v10.7c0,0.4,0.1,0.7,0.5,0.8c0.3,0.1,0.7,0.3,0.9,0l10.6-5.3c0.3-0.1,0.5-0.5,0.5-0.9
								C53.4,16.9,53.1,16.5,52.7,16.3z M42.8,21v-7.5l7.4,3.7L42.8,21z M52.7,16.3L42.1,11c-0.1-0.1-0.3-0.1-0.4-0.1
								c-0.1,0-0.4,0-0.5,0.1c-0.3,0.1-0.5,0.5-0.5,0.8v10.7c0,0.4,0.1,0.7,0.5,0.8c0.3,0.1,0.7,0.3,0.9,0l10.6-5.3
								c0.3-0.1,0.5-0.5,0.5-0.9C53.4,16.9,53.1,16.5,52.7,16.3z M42.8,21v-7.5l7.4,3.7L42.8,21z M52.7,16.3L42.1,11
								c-0.1-0.1-0.3-0.1-0.4-0.1c-0.1,0-0.4,0-0.5,0.1c-0.3,0.1-0.5,0.5-0.5,0.8v10.7c0,0.4,0.1,0.7,0.5,0.8c0.3,0.1,0.7,0.3,0.9,0
								l10.6-5.3c0.3-0.1,0.5-0.5,0.5-0.9C53.4,16.9,53.1,16.5,52.7,16.3z M42.8,21v-7.5l7.4,3.7L42.8,21z M52.7,16.3L42.1,11
								c-0.1-0.1-0.3-0.1-0.4-0.1c-0.1,0-0.4,0-0.5,0.1c-0.3,0.1-0.5,0.5-0.5,0.8v10.7c0,0.4,0.1,0.7,0.5,0.8c0.3,0.1,0.7,0.3,0.9,0
								l10.6-5.3c0.3-0.1,0.5-0.5,0.5-0.9C53.4,16.9,53.1,16.5,52.7,16.3z M42.8,21v-7.5l7.4,3.7L42.8,21z M52.7,16.3L42.1,11
								c-0.1-0.1-0.3-0.1-0.4-0.1c-0.1,0-0.4,0-0.5,0.1c-0.3,0.1-0.5,0.5-0.5,0.8v10.7c0,0.4,0.1,0.7,0.5,0.8c0.3,0.1,0.7,0.3,0.9,0
								l10.6-5.3c0.3-0.1,0.5-0.5,0.5-0.9C53.4,16.9,53.1,16.5,52.7,16.3z M42.8,21v-7.5l7.4,3.7L42.8,21z M52.7,16.3L42.1,11
								c-0.1-0.1-0.3-0.1-0.4-0.1c-0.1,0-0.4,0-0.5,0.1c-0.3,0.1-0.5,0.5-0.5,0.8v10.7c0,0.4,0.1,0.7,0.5,0.8c0.3,0.1,0.7,0.3,0.9,0
								l10.6-5.3c0.3-0.1,0.5-0.5,0.5-0.9C53.4,16.9,53.1,16.5,52.7,16.3z M42.8,21v-7.5l7.4,3.7L42.8,21z M52.7,16.3L42.1,11
								c-0.1-0.1-0.3-0.1-0.4-0.1c-0.1,0-0.4,0-0.5,0.1c-0.3,0.1-0.5,0.5-0.5,0.8v10.7c0,0.4,0.1,0.7,0.5,0.8c0.3,0.1,0.7,0.3,0.9,0
								l10.6-5.3c0.3-0.1,0.5-0.5,0.5-0.9C53.4,16.9,53.1,16.5,52.7,16.3z M42.8,21v-7.5l7.4,3.7L42.8,21z M52.7,16.3L42.1,11
								c-0.1-0.1-0.3-0.1-0.4-0.1c-0.1,0-0.4,0-0.5,0.1c-0.3,0.1-0.5,0.5-0.5,0.8v10.7c0,0.4,0.1,0.7,0.5,0.8c0.3,0.1,0.7,0.3,0.9,0
								l10.6-5.3c0.3-0.1,0.5-0.5,0.5-0.9C53.4,16.9,53.1,16.5,52.7,16.3z M42.8,21v-7.5l7.4,3.7L42.8,21z M83.5,1.6
								c-0.4-0.3-0.8-0.3-1.2-0.1L70.8,5.9v-2c0-2.9-2.4-5.3-5.3-5.3H25.8c-2.9,0-5.3,2.4-5.3,5.3v26.6c0,2.9,2.4,5.3,5.3,5.3h39.7
								c2.9,0,5.3-2.4,5.3-5.3v-2l11.4,4.7c0.1,0,0.3,0.1,0.5,0.1c0.3,0,0.5-0.1,0.8-0.3c0.4-0.3,0.5-0.7,0.5-1.1V2.6
								C84,2.2,83.8,1.7,83.5,1.6z M68.4,30.6c0,1.6-1.3,2.9-2.9,2.9H25.8c-1.6,0-2.9-1.3-2.9-2.9V3.9c0-1.6,1.3-2.9,2.9-2.9h39.7
								c1.6,0,2.9,1.3,2.9,2.9V30.6z M81.7,30.5l-11.2-4.5V8.6l11.2-4.5V30.5z M52.7,16.3L42.1,11c-0.1-0.1-0.3-0.1-0.4-0.1
								c-0.1,0-0.4,0-0.5,0.1c-0.3,0.1-0.5,0.5-0.5,0.8v10.7c0,0.4,0.1,0.7,0.5,0.8c0.3,0.1,0.7,0.3,0.9,0l10.6-5.3
								c0.3-0.1,0.5-0.5,0.5-0.9C53.4,16.9,53.1,16.5,52.7,16.3z M42.8,21v-7.5l7.4,3.7L42.8,21z M52.7,16.3L42.1,11
								c-0.1-0.1-0.3-0.1-0.4-0.1c-0.1,0-0.4,0-0.5,0.1c-0.3,0.1-0.5,0.5-0.5,0.8v10.7c0,0.4,0.1,0.7,0.5,0.8c0.3,0.1,0.7,0.3,0.9,0
								l10.6-5.3c0.3-0.1,0.5-0.5,0.5-0.9C53.4,16.9,53.1,16.5,52.7,16.3z M42.8,21v-7.5l7.4,3.7L42.8,21z M52.7,16.3L42.1,11
								c-0.1-0.1-0.3-0.1-0.4-0.1c-0.1,0-0.4,0-0.5,0.1c-0.3,0.1-0.5,0.5-0.5,0.8v10.7c0,0.4,0.1,0.7,0.5,0.8c0.3,0.1,0.7,0.3,0.9,0
								l10.6-5.3c0.3-0.1,0.5-0.5,0.5-0.9C53.4,16.9,53.1,16.5,52.7,16.3z M42.8,21v-7.5l7.4,3.7L42.8,21z M52.7,16.3L42.1,11
								c-0.1-0.1-0.3-0.1-0.4-0.1c-0.1,0-0.4,0-0.5,0.1c-0.3,0.1-0.5,0.5-0.5,0.8v10.7c0,0.4,0.1,0.7,0.5,0.8c0.3,0.1,0.7,0.3,0.9,0
								l10.6-5.3c0.3-0.1,0.5-0.5,0.5-0.9C53.4,16.9,53.1,16.5,52.7,16.3z M42.8,21v-7.5l7.4,3.7L42.8,21z M52.7,16.3L42.1,11
								c-0.1-0.1-0.3-0.1-0.4-0.1c-0.1,0-0.4,0-0.5,0.1c-0.3,0.1-0.5,0.5-0.5,0.8v10.7c0,0.4,0.1,0.7,0.5,0.8c0.3,0.1,0.7,0.3,0.9,0
								l10.6-5.3c0.3-0.1,0.5-0.5,0.5-0.9C53.4,16.9,53.1,16.5,52.7,16.3z M42.8,21v-7.5l7.4,3.7L42.8,21z M52.7,16.3L42.1,11
								c-0.1-0.1-0.3-0.1-0.4-0.1c-0.1,0-0.4,0-0.5,0.1c-0.3,0.1-0.5,0.5-0.5,0.8v10.7c0,0.4,0.1,0.7,0.5,0.8c0.3,0.1,0.7,0.3,0.9,0
								l10.6-5.3c0.3-0.1,0.5-0.5,0.5-0.9C53.4,16.9,53.1,16.5,52.7,16.3z M42.8,21v-7.5l7.4,3.7L42.8,21z M52.7,16.3L42.1,11
								c-0.1-0.1-0.3-0.1-0.4-0.1c-0.1,0-0.4,0-0.5,0.1c-0.3,0.1-0.5,0.5-0.5,0.8v10.7c0,0.4,0.1,0.7,0.5,0.8c0.3,0.1,0.7,0.3,0.9,0
								l10.6-5.3c0.3-0.1,0.5-0.5,0.5-0.9C53.4,16.9,53.1,16.5,52.7,16.3z M42.8,21v-7.5l7.4,3.7L42.8,21z"/>
							<path id="Shape_6_" class="st1" d="M52.7,16.3L42.1,11c-0.1-0.1-0.3-0.1-0.4-0.1c-0.1,0-0.4,0-0.5,0.1
								c-0.3,0.1-0.5,0.5-0.5,0.8v10.7c0,0.4,0.1,0.7,0.5,0.8c0.3,0.1,0.7,0.3,0.9,0l10.6-5.3c0.3-0.1,0.5-0.5,0.5-0.9
								C53.4,16.9,53.1,16.5,52.7,16.3z M42.8,21v-7.5l7.4,3.7L42.8,21z"/>
						</g>
						<g id="Group_1_" transform="translate(8.775000, 0.000000)">
							<path id="Shape_5_" class="st0" d="M51.3,7.7C47.3,3.9,42.1,2,36.9,2S26.5,3.9,22.5,7.7c-0.4,0.4-1.1,0.4-1.5,0
								c-0.1-0.1-0.3-0.4-0.3-0.6c0-0.3,0.1-0.5,0.4-0.8c4.1-4,9.7-6.3,15.7-6.3s11.6,2.3,15.7,6.3c0.1,0.1,0.3,0.4,0.3,0.6
								c0,0.3,0,0.6-0.3,0.8C52.3,8.1,51.7,8.1,51.3,7.7z"/>
							<path id="Shape_3_" class="st0" d="M46.5,13.5c-2.5-2.4-6-3.8-9.6-3.8c-3.6,0-7.1,1.4-9.6,3.8c-0.4,0.4-1.1,0.4-1.5,0
								c-0.4-0.4-0.4-1,0-1.4c2.9-2.8,6.9-4.4,11.1-4.4s8.1,1.5,11.1,4.4c0.4,0.4,0.4,1,0,1.4C47.5,13.9,46.9,13.9,46.5,13.5z"/>
							<path id="Shape_4_" class="st0" d="M41.8,19.4c-1.3-1.3-3.2-1.9-4.9-1.9s-3.6,0.6-4.9,1.9c-0.4,0.4-1.1,0.4-1.5,0
								c-0.4-0.4-0.4-1,0-1.4c1.7-1.7,4-2.6,6.4-2.6s4.7,0.9,6.4,2.6c0.4,0.4,0.4,1,0,1.4C42.9,19.8,42.2,19.8,41.8,19.4z"/>
						</g>
					</g>
				</g>
			</g>
		</g>
	</g>
</g>
</svg>
