<?xml version="1.0" encoding="utf-8"?>
<!-- Generator: Adobe Illustrator 22.1.0, SVG Export Plug-In . SVG Version: 6.00 Build 0)  -->
<svg version="1.1" id="Livello_1" xmlns="http://www.w3.org/2000/svg" xmlns:xlink="http://www.w3.org/1999/xlink" x="0px" y="0px"
	 width="338.5px" height="112.4px" viewBox="0 0 338.5 112.4" style="enable-background:new 0 0 338.5 112.4;" xml:space="preserve"
	>
<style type="text/css">
	.st0{fill:#034EA2;}
	.st1{fill:#FFFFFF;}
</style>
<g>
	<g>
		<g>
			<path class="st0" d="M338.3,26.8c4.6,26.4-67.3,61-160.7,77.3c-93.3,16.3-172.8,8-177.4-18.4c-4.6-26.4,67.3-61,160.7-77.3
				C254.3-7.9,333.7,0.3,338.3,26.8z"/>
		</g>
		<g>
			<g>
				<polygon class="st1" points="250.4,66 249.9,38.5 258.6,38.5 258.6,73.1 246.1,73.1 237.5,44.7 237.3,44.7 237.8,73.1 
					229.2,73.1 229.2,38.5 242.2,38.5 250.2,66 				"/>
				<polygon class="st1" points="92.9,41.8 88.1,73.5 78.7,73.5 85.2,38.5 100.7,38.5 107.2,73.5 97.8,73.5 93.1,41.8 				"/>
				<polygon class="st1" points="133.7,65.3 138,38.5 152.3,38.5 153.1,73.5 144.3,73.5 144.1,42 143.9,42 138.1,73.5 129.2,73.5 
					123.3,42 123.1,42 122.9,73.5 114.2,73.5 114.9,38.5 129.2,38.5 133.5,65.3 				"/>
				<path class="st1" d="M63.9,63.6c0.3,0.8,0.2,1.9,0.1,2.6c-0.3,1.2-1.1,2.4-3.4,2.4c-2.2,0-3.5-1.3-3.5-3.2V62h-9.4l0,2.7
					c0,7.8,6.1,10.2,12.7,10.2c6.3,0,11.5-2.2,12.4-8c0.4-3,0.1-5,0-5.8C71.3,53.8,58,51.6,57,47.5c-0.2-0.7-0.1-1.4,0-1.8
					c0.2-1.1,1-2.3,3.2-2.3c2,0,3.3,1.3,3.3,3.2c0,0.6,0,2.2,0,2.2h8.7v-2.5c0-7.6-6.8-8.8-11.8-8.8c-6.2,0-11.3,2.1-12.2,7.8
					c-0.3,1.6-0.3,3,0.1,4.7C49.7,57,62.1,59.1,63.9,63.6z"/>
				<path class="st1" d="M177.7,63.6c0.3,0.8,0.2,1.9,0.1,2.6c-0.3,1.2-1.1,2.3-3.4,2.3c-2.2,0-3.5-1.3-3.5-3.1l0-3.4h-9.3l0,2.7
					c0,7.7,6.1,10.1,12.6,10.1c6.3,0,11.4-2.1,12.2-7.9c0.4-3,0.1-5,0-5.7c-1.5-7.3-14.6-9.4-15.6-13.5c-0.2-0.7-0.1-1.4,0-1.8
					c0.3-1.1,1-2.3,3.2-2.3c2,0,3.2,1.2,3.2,3.1c0,0.6,0,2.1,0,2.1h8.7v-2.4c0-7.5-6.8-8.7-11.7-8.7c-6.2,0-11.2,2-12.1,7.7
					c-0.3,1.6-0.3,2.9,0.1,4.7C163.6,57,175.9,59.1,177.7,63.6z"/>
				<path class="st1" d="M207.1,68.3c2.4,0,3.2-1.7,3.4-2.5c0.1-0.4,0.1-0.9,0.1-1.3V38.5h8.8v25.1c0,0.6,0,2-0.1,2.3
					c-0.6,6.5-5.8,8.7-12.2,8.7c-6.4,0-11.6-2.1-12.2-8.7c0-0.3-0.1-1.7-0.1-2.3V38.5h8.8v25.9c0,0.5,0,1,0.1,1.3
					C203.9,66.6,204.7,68.3,207.1,68.3z"/>
				<path class="st1" d="M280.1,67.9c2.5,0,3.4-1.6,3.6-2.5c0.1-0.4,0.1-0.9,0.1-1.3V59h-3.6v-5.1h12.4v9.4c0,0.7,0,1.1-0.1,2.3
					c-0.6,6.4-6.1,8.6-12.3,8.6c-6.2,0-11.7-2.3-12.3-8.6c-0.1-1.2-0.1-1.7-0.1-2.3l0-14.7c0-0.6,0.1-1.7,0.1-2.3
					c0.8-6.5,6.1-8.6,12.3-8.6c6.2,0,11.6,2.1,12.3,8.6c0.1,1.1,0.1,2.3,0.1,2.3v1.2h-8.8v-2c0,0,0-0.8-0.1-1.3
					c-0.1-0.8-0.8-2.6-3.5-2.6c-2.6,0-3.3,1.7-3.5,2.6c-0.1,0.5-0.1,1.1-0.1,1.7v16c0,0.4,0,0.9,0.1,1.3
					C276.7,66.3,277.6,67.9,280.1,67.9z"/>
			</g>
		</g>
	</g>
</g>
</svg>
