<?xml version="1.0" encoding="utf-8"?>
<!-- Generator: Adobe Illustrator 22.1.0, SVG Export Plug-In . SVG Version: 6.00 Build 0)  -->
<svg version="1.1" id="Layer_1" xmlns="http://www.w3.org/2000/svg" xmlns:xlink="http://www.w3.org/1999/xlink" x="0px" y="0px"
	 width="93.5px" height="114px" viewBox="0 0 93.5 114" style="enable-background:new 0 0 93.5 114;" xml:space="preserve">
<style type="text/css">
	.st0{fill:#A4C639;}
	.st1{fill:#FFFFFF;}
	.st2{fill:#FFFFFF;stroke:#A4C639;stroke-miterlimit:10;}
</style>
<g>
	<g>
		<g>
			<g id="XMLID_1_">
				<g>
					<path class="st0" d="M71.7,45.3v15.2c0,2-1.6,3.7-3.7,3.7c-2,0-3.7-1.6-3.7-3.7V45.3c0-2,1.6-3.7,3.7-3.7
						C70.1,41.6,71.7,43.3,71.7,45.3z"/>
					<path class="st1" d="M64.4,43.1V42c0.9-1,2.2-1.7,3.7-1.7c2.7,0,5,2.2,5,4.9v15.2c0,2.7-2.2,5-5,5c-1.5,0-2.8-0.7-3.7-1.7v-1.1
						c0.7,1.3,2.1,2.1,3.7,2.1c1.2,0,2.3-0.5,3-1.3c0.8-0.8,1.3-1.9,1.3-3.1V45.3c0-2.4-1.9-4.3-4.3-4.3
						C66.5,41,65.1,41.8,64.4,43.1z"/>
					<path class="st1" d="M68.1,41.6c-2,0-3.7,1.6-3.7,3.7v15.2c0,2,1.6,3.7,3.7,3.7c2,0,3.7-1.6,3.7-3.7V45.3
						C71.7,43.3,70.1,41.6,68.1,41.6z M68.1,64.8c-1.6,0-3-0.9-3.7-2.1V43.1c0.7-1.3,2.1-2.2,3.7-2.2c2.4,0,4.3,1.9,4.3,4.3v15.2
						c0,1.2-0.5,2.3-1.3,3.1C70.4,64.4,69.3,64.8,68.1,64.8z"/>
					<path class="st1" d="M63.8,45.1c0.1-0.5,0.3-1,0.4-1.5c0.1-0.2,0.1-0.3,0.2-0.4v19.6c-0.4-0.6-0.6-1.4-0.6-2.2V45.3
						C63.8,45.2,63.8,45.2,63.8,45.1C63.8,45.1,63.8,45.1,63.8,45.1C63.8,45.1,63.8,45.1,63.8,45.1z"/>
					<path class="st1" d="M64.4,42v1.1c-0.1,0.1-0.2,0.3-0.2,0.4C64.2,43.1,64.3,42.6,64.4,42L64.4,42C64.3,42.1,64.3,42,64.4,42z"
						/>
					<path class="st1" d="M64.4,41.2V42c0,0,0,0,0,0C64.3,41.8,64.4,41.5,64.4,41.2z"/>
					<path class="st1" d="M64.1,43.6c-0.1,0.5-0.2,1-0.4,1.5C63.8,44.5,63.9,44,64.1,43.6z"/>
					<path class="st1" d="M63.8,45.1C63.8,45.1,63.8,45.1,63.8,45.1C63.8,45.1,63.8,45.1,63.8,45.1z"/>
					<path class="st1" d="M64.4,63.8c-0.8-0.9-1.2-2-1.2-3.2V47c0.3-0.6,0.5-1.2,0.6-1.8c0,0,0,0.1,0,0.1v15.2
						c0,0.8,0.2,1.5,0.6,2.2V63.8z"/>
					<rect x="63.1" y="41.6" class="st1" width="0.7" height="0.6"/>
					<path class="st1" d="M63.1,41.6v-0.4v-0.1c0,0,0,0,0-0.1v0c0,0,0,0,0,0h0.7v0.6H63.1z"/>
					<path class="st1" d="M63.1,45.3c0-1.2,0.5-2.3,1.2-3.2c0,0.5-0.1,1-0.2,1.5c-0.2,0.5-0.3,1-0.4,1.5c0,0,0,0,0,0c0,0,0,0,0,0
						c-0.2,0.6-0.4,1.2-0.6,1.8V45.3z"/>
					<path class="st1" d="M63.1,41.2v0.4h0C63.1,41.5,63.1,41.3,63.1,41.2z"/>
					<path class="st1" d="M63.1,41L63.1,41C63.1,41,63.1,41,63.1,41L63.1,41C63.1,41,63.1,41,63.1,41z"/>
					<path class="st1" d="M63,41.6L63,41.6l0,0.7H63C63,42,63,41.8,63,41.6z"/>
					<path class="st1" d="M61.8,41.6v-0.4v-0.1V41c0,0,0,0,0,0h1.3c0,0,0,0,0,0.1c0,0,0,0,0,0.1v0.1c0,0.1,0,0.3,0,0.4H61.8z"/>
					<path class="st1" d="M61.8,42.2v-0.7H63c0,0.2,0,0.4,0,0.7H61.8z"/>
					<path class="st1" d="M63.1,41c0-1.3-0.2-2.5-0.5-3.7c1.1,0.9,1.8,2.3,1.8,3.8c0,0,0,0,0,0v0.1c0,0.3,0,0.6,0,0.9v0
						c-0.7,0.9-1.2,2-1.2,3.2V47c0,0.1,0,0.1-0.1,0.2v-4.9h0.7v-0.7V41H63.1z"/>
					<path class="st0" d="M61.4,37.9c-0.1-0.6-0.3-1.2-0.6-1.7c0.6,0.2,1.2,0.6,1.7,1c0.3,1.2,0.5,2.4,0.5,3.7h0
						C63,39.7,62.4,38.6,61.4,37.9z"/>
					<path class="st0" d="M61.8,41c0-1-0.1-2.1-0.4-3c1,0.7,1.6,1.8,1.7,3H61.8z"/>
					<path class="st1" d="M61.8,41.2v0.4h0C61.8,41.5,61.8,41.3,61.8,41.2z"/>
					<path class="st1" d="M61.8,41C61.8,41,61.8,41,61.8,41v0.1C61.8,41,61.8,41,61.8,41L61.8,41z"/>
					<path class="st1" d="M61.8,41.6v0.7h-0.1C61.7,42,61.7,41.8,61.8,41.6L61.8,41.6z"/>
					<path class="st1" d="M61.7,42.2H31.8c0-0.2,0-0.4,0-0.7h30C61.7,41.8,61.7,42,61.7,42.2z"/>
					<path class="st1" d="M55.9,28.5l0.6-1.1c4.7,2.9,7.9,7.9,7.9,13.6v0.1c0-1.5-0.7-2.9-1.8-3.8C61.5,33.6,59.1,30.5,55.9,28.5z"
						/>
					<path class="st0" d="M57.3,23.2l-2,3.5c-0.3-0.2-0.6-0.3-0.9-0.5l2-3.6c0.1-0.2,0.3-0.3,0.5-0.3c0.1,0,0.2,0,0.2,0.1
						C57.4,22.6,57.5,22.9,57.3,23.2z"/>
					<path class="st0" d="M55.2,29.6l0.6-1.1c3.3,2,5.7,5.1,6.7,8.7c-0.5-0.4-1.1-0.8-1.7-1C59.7,33.5,57.8,31.2,55.2,29.6z"/>
					<path class="st1" d="M55.8,22.4c0.3-0.6,1-0.8,1.6-0.5c0.6,0.3,0.8,1,0.5,1.6l-2,3.5c-0.2-0.1-0.4-0.2-0.6-0.3l2-3.5
						c0.1-0.2,0-0.6-0.2-0.7c-0.1,0-0.2-0.1-0.2-0.1c-0.2,0-0.4,0.1-0.5,0.3l-2,3.6c-0.2-0.1-0.4-0.2-0.6-0.2L55.8,22.4z"/>
					<path class="st1" d="M56.5,27.4l-0.6,1.1c-0.2-0.1-0.4-0.2-0.6-0.3l0.6-1.1C56.1,27.1,56.3,27.2,56.5,27.4z"/>
					<path class="st1" d="M55.8,22.4l-2,3.6c-0.2-0.1-0.4-0.2-0.6-0.2l2.1-3.7c0.5-0.9,1.6-1.2,2.5-0.7c0.6,0.3,0.9,1,0.9,1.6
						c0,0.3-0.1,0.6-0.2,0.9l-2,3.6c-0.2-0.1-0.4-0.2-0.6-0.3l2-3.5c0.3-0.6,0.1-1.3-0.5-1.6C56.9,21.6,56.2,21.8,55.8,22.4z"/>
					<path class="st0" d="M55.9,28.5l-0.6,1.1c-0.2-0.1-0.4-0.2-0.6-0.3l0.6-1.1C55.5,28.3,55.7,28.4,55.9,28.5z"/>
					<path class="st1" d="M55.9,27l-0.6,1.1c-0.2-0.1-0.4-0.2-0.6-0.3l0.6-1.1C55.6,26.8,55.7,26.9,55.9,27z"/>
					<path class="st0" d="M53.8,27.4l0.6-1.1c0.3,0.1,0.6,0.3,0.9,0.5l-0.6,1.1C54.4,27.7,54.1,27.5,53.8,27.4z"/>
					<path class="st0" d="M54.1,29l0.6-1.1c0.2,0.1,0.4,0.2,0.6,0.3l-0.6,1.1C54.5,29.2,54.3,29.1,54.1,29z"/>
					<path class="st1" d="M54.2,33.6C54.2,33.6,54.2,33.5,54.2,33.6c0.1-0.1,0.1,0,0.1,0C54.3,33.7,54.3,33.7,54.2,33.6
						C54.2,33.7,54.2,33.7,54.2,33.6z"/>
					<path class="st0" d="M54.7,27.9L54.1,29h0c-0.3-0.2-0.6-0.3-0.9-0.4l0.6-1.1C54.1,27.5,54.4,27.7,54.7,27.9z"/>
					<path class="st1" d="M54.3,34.3c-0.4,0-0.7-0.3-0.7-0.7c0-0.4,0.3-0.7,0.7-0.7c0.4,0,0.7,0.3,0.7,0.7
						C55,34,54.7,34.3,54.3,34.3z M54.3,33.5C54.2,33.5,54.2,33.6,54.3,33.5c-0.1,0.1,0,0.1,0,0.1C54.3,33.7,54.3,33.7,54.3,33.5
						C54.3,33.6,54.3,33.5,54.3,33.5z"/>
					<path class="st1" d="M54.4,26.2l-0.6,1.1c-0.2-0.1-0.4-0.2-0.6-0.2l0.6-1.1C54,26.1,54.2,26.2,54.4,26.2z"/>
					<path class="st1" d="M53.6,33.6c0,0.4,0.3,0.7,0.7,0.7c0.4,0,0.7-0.3,0.7-0.7c0-0.4-0.3-0.7-0.7-0.7
						C53.9,32.9,53.6,33.2,53.6,33.6z M54.3,35c-0.7,0-1.3-0.5-1.3-1.2l0.8-1.4c0.2-0.1,0.4-0.1,0.6-0.1c0.8,0,1.4,0.6,1.4,1.4
						S55,35,54.3,35z"/>
					<path class="st1" d="M52.6,26.9l0.6-1.2c0.2,0.1,0.4,0.1,0.6,0.2l-0.6,1.1C53,27.1,52.8,27,52.6,26.9z"/>
					<path class="st0" d="M52.6,28.3l0.6-1.1c0.2,0.1,0.4,0.2,0.6,0.2l-0.6,1.1C53,28.4,52.8,28.4,52.6,28.3z"/>
					<path class="st1" d="M53.7,32.4l-0.8,1.4c0,0,0-0.1,0-0.2C52.9,33.1,53.2,32.6,53.7,32.4z"/>
					<path class="st0" d="M52.1,35.3l0.8-1.5c0.1,0.7,0.6,1.2,1.3,1.2c0.8,0,1.4-0.6,1.4-1.4s-0.6-1.4-1.4-1.4
						c-0.2,0-0.4,0.1-0.6,0.1l1.5-2.8c2.5,1.6,4.5,3.9,5.6,6.6c-0.5-0.2-1.1-0.3-1.7-0.3h-7.7C51.7,35.8,51.9,35.5,52.1,35.3z"/>
					<path class="st0" d="M52.6,26.9c0.2,0.1,0.4,0.1,0.6,0.2l-0.6,1.1c-0.2-0.1-0.4-0.2-0.6-0.2L52.6,26.9z"/>
					<path class="st0" d="M49.6,35.9h1.9c-0.1,0.1-0.3,0.2-0.4,0.2c-0.2,0-0.3,0.1-0.5,0.1C50.2,36.2,49.9,36.1,49.6,35.9
						C49.6,36,49.6,35.9,49.6,35.9z"/>
					<path class="st0" d="M50.1,34.1l3.1-5.6c0.3,0.1,0.6,0.3,0.9,0.4L51,34.6c-0.1,0.1-0.2,0.2-0.3,0.2c-0.1,0-0.3,0-0.4,0
						C50,34.7,49.9,34.4,50.1,34.1z"/>
					<path class="st0" d="M50,35.4c-0.4-0.2-0.6-0.6-0.6-1c0-0.2,0-0.4,0.2-0.6l3.1-5.5c0.2,0.1,0.4,0.2,0.6,0.2l-3.1,5.6
						c-0.1,0.2,0,0.6,0.2,0.7c0.1,0.1,0.3,0.1,0.4,0c0.1,0,0.2-0.1,0.3-0.2l3.1-5.7h0c0.2,0.1,0.4,0.2,0.6,0.3L51.5,35
						C51.2,35.5,50.5,35.7,50,35.4z"/>
					<path class="st0" d="M49.6,35.9h-5.7c0.4-0.2,0.7-0.6,0.8-1c0.1-0.5,0.1-1-0.2-1.4l-3-5.4c1.6-0.6,3.4-0.9,5.2-0.9
						c1.8,0,3.6,0.3,5.2,0.9l-3,5.4c-0.2,0.4-0.3,0.9-0.2,1.4C48.9,35.3,49.2,35.7,49.6,35.9z"/>
					<path class="st0" d="M49.3,34.4c0,0.4,0.2,0.8,0.6,1c0.6,0.3,1.3,0.1,1.6-0.5l3.1-5.7c0.2,0.1,0.4,0.2,0.6,0.3l-1.5,2.8
						c-0.5,0.2-0.8,0.7-0.8,1.2c0,0.1,0,0.1,0,0.2l-0.8,1.5c-0.2,0.3-0.4,0.5-0.7,0.7h-1.9c-0.4-0.2-0.7-0.6-0.8-1
						c-0.1-0.5-0.1-1,0.2-1.4l3-5.4c0.2,0.1,0.4,0.1,0.6,0.2l-3.1,5.5C49.4,34,49.3,34.2,49.3,34.4z"/>
					<path class="st0" d="M43.9,35.9C43.9,35.9,43.9,36,43.9,35.9c-0.4,0.2-0.7,0.3-1,0.3c-0.2,0-0.3,0-0.5-0.1
						c-0.2,0-0.3-0.1-0.4-0.2H43.9z"/>
					<path class="st0" d="M42.5,34.6L39.4,29c0.3-0.2,0.6-0.3,0.9-0.4l3.1,5.6c0.1,0.2,0,0.6-0.2,0.7c-0.1,0.1-0.3,0.1-0.4,0
						C42.7,34.8,42.6,34.8,42.5,34.6z"/>
					<path class="st0" d="M43.4,34.1l-3.1-5.6c0.2-0.1,0.4-0.2,0.6-0.2l3.1,5.5c0.1,0.2,0.1,0.4,0.1,0.6c0,0.4-0.2,0.8-0.6,1
						c-0.6,0.3-1.3,0.1-1.6-0.5l-3.1-5.7c0.2-0.1,0.4-0.2,0.6-0.3h0l3.1,5.7c0.1,0.1,0.2,0.2,0.3,0.2c0.1,0,0.3,0,0.4,0
						C43.5,34.7,43.5,34.4,43.4,34.1z"/>
					<path class="st0" d="M46.7,27.2c-1.8,0-3.6,0.3-5.2,0.9l-0.6-1.1c1.8-0.7,3.8-1,5.8-1c2.1,0,4,0.4,5.9,1L52,28.1
						C50.3,27.5,48.6,27.2,46.7,27.2z"/>
					<path class="st1" d="M40.2,25.8c2-0.7,4.2-1.1,6.5-1.1c2.3,0,4.5,0.4,6.5,1.1l-0.6,1.2c-1.8-0.7-3.8-1-5.9-1
						c-2.1,0-4,0.4-5.8,1L40.2,25.8z"/>
					<path class="st0" d="M40.9,28.3l-0.6-1.1c0.2-0.1,0.4-0.2,0.6-0.2l0.6,1.1C41.3,28.1,41.1,28.2,40.9,28.3z"/>
					<path class="st0" d="M40.6,33.6c0-0.5-0.3-1-0.8-1.2l-1.5-2.8c0.2-0.1,0.4-0.2,0.6-0.3l3.1,5.7c0.3,0.6,1,0.8,1.6,0.5
						c0.4-0.2,0.6-0.6,0.6-1c0-0.2,0-0.4-0.1-0.6l-3.1-5.5c0.2-0.1,0.4-0.2,0.6-0.2l3,5.4c0.2,0.4,0.3,0.9,0.2,1.4
						c-0.1,0.4-0.4,0.8-0.8,1H42c-0.3-0.1-0.5-0.4-0.7-0.7l-0.8-1.5C40.6,33.7,40.6,33.7,40.6,33.6z"/>
					<path class="st0" d="M40.9,28.3c-0.2,0.1-0.4,0.2-0.6,0.2l-0.6-1.1c0.2-0.1,0.4-0.2,0.6-0.2L40.9,28.3z"/>
					<path class="st1" d="M40.5,33.8l-0.8-1.4c0.5,0.2,0.8,0.7,0.8,1.2C40.6,33.7,40.6,33.7,40.5,33.8z"/>
					<path class="st1" d="M40.9,26.9c-0.2,0.1-0.4,0.1-0.6,0.2L39.6,26c0.2-0.1,0.4-0.2,0.6-0.2L40.9,26.9z"/>
					<path class="st1" d="M39,26.2c0.2-0.1,0.4-0.2,0.6-0.2l0.6,1.1c-0.2,0.1-0.4,0.2-0.6,0.2L39,26.2z"/>
					<path class="st0" d="M39.4,29l-0.6-1.1c0.3-0.2,0.6-0.3,0.9-0.5l0.6,1.1C40,28.7,39.7,28.8,39.4,29L39.4,29z"/>
					<path class="st0" d="M38.7,27.9l-0.6-1.1c0.3-0.2,0.6-0.3,0.9-0.5l0.6,1.1C39.3,27.5,39,27.7,38.7,27.9z"/>
					<path class="st1" d="M39.1,33.6C39.1,33.6,39.2,33.5,39.1,33.6c0.1-0.1,0.2,0,0.2,0C39.3,33.7,39.2,33.7,39.1,33.6
						C39.2,33.7,39.1,33.7,39.1,33.6z"/>
					<path class="st1" d="M39.2,34.3c-0.4,0-0.7-0.3-0.7-0.7c0-0.4,0.3-0.7,0.7-0.7c0.4,0,0.7,0.3,0.7,0.7
						C39.9,34,39.6,34.3,39.2,34.3z M39.2,33.5C39.2,33.5,39.1,33.6,39.2,33.5c-0.1,0.1,0,0.1,0,0.1C39.2,33.7,39.3,33.7,39.2,33.5
						C39.3,33.6,39.2,33.5,39.2,33.5z"/>
					<path class="st0" d="M38.7,27.9l0.6,1.1c-0.2,0.1-0.4,0.2-0.6,0.3l-0.6-1.1C38.4,28,38.5,27.9,38.7,27.9z"/>
					<path class="st0" d="M42,35.9h-7.7c-0.6,0-1.2,0.1-1.7,0.3c1.1-2.7,3.1-5,5.6-6.6l1.5,2.8c-0.2-0.1-0.4-0.1-0.6-0.1
						c-0.8,0-1.4,0.6-1.4,1.4s0.6,1.4,1.4,1.4c0.7,0,1.3-0.5,1.3-1.2l0.8,1.5C41.5,35.5,41.7,35.8,42,35.9z"/>
					<path class="st1" d="M38.5,33.6c0,0.4,0.3,0.7,0.7,0.7c0.4,0,0.7-0.3,0.7-0.7c0-0.4-0.3-0.7-0.7-0.7
						C38.8,32.9,38.5,33.2,38.5,33.6z M39.2,35c-0.8,0-1.4-0.6-1.4-1.4s0.6-1.4,1.4-1.4c0.2,0,0.4,0.1,0.6,0.1l0.8,1.4
						C40.5,34.5,39.9,35,39.2,35z"/>
					<path class="st0" d="M38.2,28.1l0.6,1.1c-0.2,0.1-0.4,0.2-0.6,0.3l-0.6-1.1C37.8,28.4,38,28.3,38.2,28.1z"/>
					<path class="st1" d="M38.1,26.7l0.6,1.1c-0.2,0.1-0.4,0.2-0.6,0.3L37.5,27C37.7,26.9,37.9,26.8,38.1,26.7z"/>
					<path class="st1" d="M37,27.4c0.2-0.1,0.4-0.2,0.6-0.3l0.6,1.1c-0.2,0.1-0.4,0.2-0.6,0.3L37,27.4z"/>
					<path class="st0" d="M36.4,22.5c0.2-0.1,0.6,0,0.7,0.2l2,3.6c-0.3,0.1-0.6,0.3-0.9,0.5l-2-3.5C36,22.9,36.1,22.6,36.4,22.5z"/>
					<path class="st1" d="M37.1,22.7c-0.1-0.2-0.4-0.4-0.7-0.2c-0.2,0.1-0.4,0.5-0.2,0.7l2,3.5c-0.2,0.1-0.4,0.2-0.6,0.3l-2-3.5
						c-0.3-0.6-0.1-1.3,0.4-1.6c0.6-0.3,1.3-0.1,1.6,0.5l2,3.6c-0.2,0.1-0.4,0.2-0.6,0.2L37.1,22.7z"/>
					<path class="st1" d="M35,23.8c-0.5-0.9-0.2-2,0.7-2.5c0.3-0.1,0.6-0.2,0.9-0.2c0.6,0,1.3,0.3,1.6,0.9l2.1,3.7
						c-0.2,0.1-0.4,0.1-0.6,0.2l-2-3.6c-0.3-0.6-1-0.8-1.6-0.5c-0.6,0.3-0.8,1-0.4,1.6l2,3.5c-0.2,0.1-0.4,0.2-0.6,0.3L35,23.8z"/>
					<path class="st0" d="M61.8,41h-30c0.1-1.4,1.2-2.5,2.6-2.5h24.8C60.5,38.5,61.7,39.6,61.8,41z"/>
					<path class="st0" d="M30.9,37.2c1-3.6,3.4-6.7,6.7-8.7l0.6,1.1c-2.5,1.6-4.5,3.9-5.6,6.6C32,36.4,31.4,36.8,30.9,37.2z"/>
					<path class="st0" d="M59.1,37.2H34.4c-0.8,0-1.6,0.3-2.3,0.7c0.1-0.6,0.3-1.2,0.6-1.7c0.5-0.2,1.1-0.3,1.7-0.3H42
						c0.1,0.1,0.3,0.2,0.4,0.2c0.2,0,0.3,0.1,0.5,0.1c0.3,0,0.6-0.1,0.9-0.2c0,0,0,0,0.1-0.1h5.7c0,0,0,0,0.1,0.1
						c0.3,0.1,0.6,0.2,0.9,0.2c0.2,0,0.3,0,0.5-0.1c0.2,0,0.3-0.1,0.4-0.2h7.7c0.6,0,1.2,0.1,1.7,0.3c0.2,0.5,0.4,1.1,0.6,1.7
						C60.7,37.5,60,37.2,59.1,37.2z"/>
					<path class="st0" d="M31.7,41c0-1,0.1-2.1,0.4-3c0.6-0.5,1.4-0.7,2.3-0.7h24.8c0.8,0,1.6,0.3,2.3,0.7c0.2,1,0.4,2,0.4,3h0
						c-0.1-1.4-1.2-2.5-2.6-2.5H34.4C33,38.5,31.8,39.6,31.7,41L31.7,41z"/>
					<path class="st1" d="M31.7,41h30c0,0,0,0.1,0,0.1v0.1c0,0.1,0,0.3,0,0.4h-30c0-0.1,0-0.3,0-0.4v-0.1C31.7,41,31.7,41,31.7,41z"
						/>
					<path class="st1" d="M31.7,41.2c0,0.1,0,0.3,0,0.4h0V41.2z"/>
					<path class="st1" d="M31.7,41.6c0,0.2,0,0.4,0,0.7h-0.1L31.7,41.6L31.7,41.6z"/>
					<path class="st0" d="M30.4,41c0.1-1.3,0.7-2.4,1.7-3c-0.3,1-0.4,2-0.4,3H30.4z"/>
					<path class="st1" d="M31.7,41L31.7,41c0,0,0,0.1,0,0.1V41C31.7,41,31.7,41,31.7,41z"/>
					<path class="st1" d="M30.5,42.2c0-0.2,0-0.4,0-0.7h1.3v0.7H30.5z"/>
					<path class="st0" d="M30.5,42.2h1.2h0.1h29.9h0.1H63h0.1v4.9v18.8c0,2.2-1.8,3.9-4,3.9h-2.6v8.1c0,2-1.6,3.7-3.7,3.7
						s-3.7-1.6-3.7-3.7v-8.1h-4.9v8.1c0,2-1.6,3.7-3.7,3.7S37,79.9,37,77.9v-8.1h-2.6c-2.2,0-4-1.8-4-3.9V47.1L30.5,42.2L30.5,42.2z
						"/>
					<path class="st0" d="M32.1,37.9c-1,0.7-1.6,1.8-1.7,3h0c0-1.3,0.2-2.5,0.5-3.7c0.5-0.4,1.1-0.8,1.7-1
						C32.4,36.8,32.2,37.3,32.1,37.9z"/>
					<path class="st1" d="M30.4,41.2c0,0.1,0,0.3,0,0.4h0V41.2z"/>
					<path class="st1" d="M30.4,41h1.3c0,0,0,0,0,0v0.1v0.1v0.4h-1.3c0-0.1,0-0.3,0-0.4v-0.1C30.4,41,30.4,41,30.4,41z"/>
					<path class="st1" d="M30.4,41.6L30.4,41.6c0,0.2,0,0.4,0.1,0.7h-0.1V41.6z"/>
					<path class="st1" d="M30.4,41c0,0,0,0.1,0,0.1L30.4,41C30.4,41,30.4,41,30.4,41L30.4,41z"/>
					<path class="st1" d="M29.1,63.8c0.8-0.9,1.2-2,1.2-3.2V47c0,0.1,0,0.1,0.1,0.2v18.8c0,2.2,1.8,3.9,4,3.9H37v8.1
						c0,2,1.6,3.7,3.7,3.7s3.7-1.6,3.7-3.7v-8.1h4.9v8.1c0,2,1.6,3.7,3.7,3.7s3.7-1.6,3.7-3.7v-8.1h2.6c2.2,0,4-1.8,4-3.9V47.1
						c0,0,0-0.1,0.1-0.2v13.6c0,1.2,0.5,2.4,1.2,3.2v2.1c0,2.9-2.4,5.2-5.2,5.2h-1.3v6.8c0,2.7-2.2,4.9-4.9,4.9s-5-2.2-5-4.9v-6.8
						h-2.3v6.8c0,2.7-2.2,4.9-5,4.9s-5-2.2-5-4.9v-6.8h-1.3c-2.9,0-5.2-2.3-5.2-5.2V63.8z"/>
					<path class="st1" d="M29.7,41.6V41h0.7c0,0,0,0,0,0v0.1v0.1v0.4H29.7z"/>
					<rect x="29.7" y="41.6" class="st1" width="0.7" height="0.6"/>
					<path class="st1" d="M29.7,45.1C29.7,45.1,29.7,45.1,29.7,45.1C29.7,45.1,29.7,45.1,29.7,45.1z"/>
					<path class="st1" d="M29.1,41.3v-0.2c0,0,0,0,0,0c0-1.5,0.7-2.9,1.8-3.8c-0.3,1.2-0.5,2.4-0.5,3.7h-0.7v0.6v0.7h0.7v4.9
						c0,0-0.1-0.1-0.1-0.2v-1.7c0-1.2-0.4-2.3-1.2-3.2v0C29.1,41.8,29.1,41.5,29.1,41.3z"/>
					<path class="st1" d="M29.3,43.6c0.2,0.5,0.3,1,0.4,1.5C29.5,44.6,29.4,44.1,29.3,43.6z"/>
					<path class="st1" d="M29.1,62.7c0.4-0.6,0.6-1.4,0.6-2.2V45.3c0,0,0-0.1,0-0.1c0.2,0.6,0.4,1.2,0.6,1.8v13.6
						c0,1.2-0.5,2.4-1.2,3.2V62.7z"/>
					<path class="st1" d="M29.7,60.5c0,0.8-0.2,1.5-0.6,2.2V43.1c0.1,0.1,0.2,0.3,0.2,0.4c0.1,0.5,0.2,1,0.4,1.5c0,0,0,0,0,0
						c0,0,0,0,0,0c0,0,0,0.1,0,0.1V60.5z"/>
					<path class="st1" d="M29.2,42.1c0.7,0.9,1.2,2,1.2,3.2V47c-0.3-0.6-0.5-1.2-0.6-1.8c0,0,0,0,0,0c0,0,0,0,0,0
						c0-0.5-0.1-1.1-0.4-1.5C29.3,43.1,29.2,42.6,29.2,42.1z"/>
					<path class="st1" d="M29.2,42.1c0,0.5,0.1,1,0.2,1.5c-0.1-0.2-0.1-0.3-0.2-0.4L29.2,42.1C29.1,42,29.1,42.1,29.2,42.1
						L29.2,42.1z"/>
					<path class="st1" d="M29.1,42v-0.8C29.1,41.5,29.1,41.8,29.1,42C29.1,42.1,29.1,42,29.1,42z"/>
					<path class="st1" d="M29.1,41c0-5.7,3.1-10.7,7.9-13.6l0.6,1.1c-3.3,2-5.7,5.1-6.7,8.7C29.8,38.2,29.1,39.5,29.1,41L29.1,41z"
						/>
					<path class="st0" d="M29,45.3v15.2c0,2-1.6,3.7-3.7,3.7s-3.7-1.6-3.7-3.7V45.3c0-2,1.6-3.7,3.7-3.7S29,43.3,29,45.3z"/>
					<path class="st1" d="M21.1,45.3c0-2.4,1.9-4.3,4.3-4.3c1.6,0,3,0.9,3.7,2.2v19.6c-0.7,1.3-2.1,2.1-3.7,2.1
						c-1.2,0-2.3-0.5-3-1.3c-0.8-0.8-1.3-1.9-1.3-3.1V45.3z M21.7,45.3v15.2c0,2,1.6,3.7,3.7,3.7s3.7-1.6,3.7-3.7V45.3
						c0-2-1.6-3.7-3.7-3.7S21.7,43.3,21.7,45.3z"/>
					<path class="st1" d="M25.4,41c-2.4,0-4.3,1.9-4.3,4.3v15.2c0,1.2,0.5,2.3,1.3,3.1c0.8,0.8,1.9,1.3,3,1.3c1.6,0,3-0.9,3.7-2.1
						v1.1c-0.9,1-2.2,1.7-3.7,1.7c-2.7,0-5-2.2-5-5V45.3c0-2.7,2.2-4.9,5-4.9c1.5,0,2.8,0.7,3.7,1.7v1.1C28.4,41.8,27,41,25.4,41z"
						/>
				</g>
				<g>
				</g>
			</g>
		</g>
	</g>
</g>
<g>
	<g id="Version-2">
		<g id="Platform-View---Step-2" transform="translate(-659.000000, -410.000000)">
			<g id="Content-Area" transform="translate(110.000000, 295.000000)">
				<g id="Card---Roku" transform="translate(20.000000, 18.000000)">
					<path class="st2" d="M609.1,97.5h-66.8c-7,0-12.8,5.8-12.8,12.9v87.3c0,7.1,5.8,12.9,12.8,12.9h66.8c7.1,0,12.9-5.8,12.9-12.9
						v-87.3C622,103.3,616.2,97.5,609.1,97.5z M611.7,187.4c0,1.4-1.2,2.6-2.6,2.6h-66.8c-1.4,0-2.5-1.2-2.5-2.6v-77
						c0-1.4,1.2-2.6,2.5-2.6h66.8c1.4,0,2.6,1.2,2.6,2.6V187.4z"/>
				</g>
			</g>
		</g>
	</g>
	<g>
		<path class="st0" d="M50.9,103.2c0,2.3-1.9,4.2-4.2,4.2c-2.3,0-4.2-1.9-4.2-4.2c0-2.3,1.9-4.2,4.2-4.2
			C49,99,50.9,100.9,50.9,103.2z"/>
	</g>
</g>
</svg>
