<?xml version="1.0" encoding="utf-8"?>
<!-- Generator: Adobe Illustrator 22.1.0, SVG Export Plug-In . SVG Version: 6.00 Build 0)  -->
<svg version="1.1" id="Layer_1" xmlns="http://www.w3.org/2000/svg" xmlns:xlink="http://www.w3.org/1999/xlink" x="0px" y="0px"
	 width="1286.9px" height="1115.9px" viewBox="0 0 1286.9 1115.9" style="enable-background:new 0 0 1286.9 1115.9;"
	 xml:space="preserve">
<style type="text/css">
	.st0{fill:#FFFFFF;}
	.st1{fill:url(#SVGID_1_);}
	.st2{fill:url(#SVGID_2_);}
	.st3{fill:url(#SVGID_3_);}
	.st4{fill:url(#SVGID_4_);}
	.st5{fill:url(#SVGID_5_);}
	.st6{fill:url(#SVGID_6_);}
</style>
<g id="STACKED_GRADIENT_PEACOCK_x2F_BLACK">
	<g>
		<path class="st0" d="M1001.3,727.1c74,0,115-63.9,110.5-124.2c-7.3-78.5-79.4-108.7-118.7-102.3c32.9-18.3,76.7-104.1,10-171.6
			c-53-50.2-120.5-32-144.3-10c12.8-42-8.2-128.7-94-142.4c-77.6-9.1-111.4,44.7-121.4,70.3c-14.6-36.5-50.2-75.8-116.9-70.3
			c-84.9,9.1-111.4,90.4-98.6,138.8c-33.8-22.8-91.3-32.9-141.5,10c-64.8,64.8-30.1,152.5,5.5,173.5c-39.3-3.7-101.3,22.8-115,92.2
			c-14.6,85.8,51.1,136,115,136H1001.3z"/>
		<linearGradient id="SVGID_1_" gradientUnits="userSpaceOnUse" x1="321.2288" y1="361.0177" x2="581.8258" y2="681.3542">
			<stop  offset="0" style="stop-color:#E62425"/>
			<stop  offset="0.1198" style="stop-color:#E72A26"/>
			<stop  offset="0.272" style="stop-color:#E93927"/>
			<stop  offset="0.4417" style="stop-color:#ED5329"/>
			<stop  offset="0.6227" style="stop-color:#F3772D"/>
			<stop  offset="0.7697" style="stop-color:#F89A30"/>
			<stop  offset="1" style="stop-color:#F89A30"/>
		</linearGradient>
		<path class="st1" d="M452.4,380.1L583,678.7L313.6,494.2c-67.6-44.7-53.9-121.4-16.4-155.2C350.2,294.3,425,309.8,452.4,380.1z"/>
		<linearGradient id="SVGID_2_" gradientUnits="userSpaceOnUse" x1="529.1701" y1="223.2998" x2="584.7225" y2="627.478">
			<stop  offset="0" style="stop-color:#9F1D21"/>
			<stop  offset="0.2191" style="stop-color:#AD2231"/>
			<stop  offset="0.6471" style="stop-color:#D22F5C"/>
			<stop  offset="0.8061" style="stop-color:#E1346D"/>
			<stop  offset="1" style="stop-color:#E1346D"/>
		</linearGradient>
		<path class="st2" d="M632.5,309.8L585,644L449.9,326.2c-29.2-79.4,36.5-131.5,80.3-132.4C580.4,188.4,643.4,226.7,632.5,309.8z"/>
		<linearGradient id="SVGID_3_" gradientUnits="userSpaceOnUse" x1="749.7421" y1="284.8691" x2="707.6803" y2="601.262">
			<stop  offset="0" style="stop-color:#2A2769"/>
			<stop  offset="0.8727" style="stop-color:#938BC0"/>
			<stop  offset="0.9091" style="stop-color:#9991C5"/>
		</linearGradient>
		<path class="st3" d="M837.9,325.3L703.7,644l-42.9-287.6c-3.6-43.8,23.7-44.7,33.8-53C692.7,297,679,297,679,297h-25.6
			c-2.7-74.9,55.7-107.7,103.2-104.1C807.8,194.8,865.3,254.1,837.9,325.3z"/>
		<linearGradient id="SVGID_4_" gradientUnits="userSpaceOnUse" x1="986.1777" y1="335.8762" x2="709.8032" y2="671.2966">
			<stop  offset="0.1273" style="stop-color:#20439B"/>
			<stop  offset="0.2721" style="stop-color:#2057A7"/>
			<stop  offset="0.5668" style="stop-color:#218AC4"/>
			<stop  offset="0.8485" style="stop-color:#21C1E4"/>
			<stop  offset="1" style="stop-color:#21C1E4"/>
		</linearGradient>
		<path class="st4" d="M974.8,492.4L705.5,677.8l126.9-294.9c38.4-93.1,127.8-74.9,159.8-39.3
			C1026.9,378.3,1036.9,448.6,974.8,492.4z"/>
		<linearGradient id="SVGID_5_" gradientUnits="userSpaceOnUse" x1="1093.8795" y1="585.0401" x2="709.5371" y2="704.3463">
			<stop  offset="0.1212" style="stop-color:#127A3E"/>
			<stop  offset="0.6909" style="stop-color:#54BA69"/>
			<stop  offset="1" style="stop-color:#54BA69"/>
		</linearGradient>
		<path class="st5" d="M1003.1,710.6H691.8l252.9-176.2c62.1-41.1,127.8-3.7,145.2,50.2C1108.1,644.9,1067.1,710.6,1003.1,710.6z"/>
		<linearGradient id="SVGID_6_" gradientUnits="userSpaceOnUse" x1="209.2649" y1="588.9366" x2="589.879" y2="706.7476">
			<stop  offset="0" style="stop-color:#F5851F"/>
			<stop  offset="0.1652" style="stop-color:#F68B1E"/>
			<stop  offset="0.3794" style="stop-color:#F79B1D"/>
			<stop  offset="0.6197" style="stop-color:#FAB61B"/>
			<stop  offset="0.8242" style="stop-color:#FDD218"/>
			<stop  offset="1" style="stop-color:#FDD218"/>
		</linearGradient>
		<path class="st6" d="M196.9,581c23.7-62.1,89.5-84,147.9-46.6l252.9,176.2H291C227.1,710.6,176.9,652.2,196.9,581z"/>
	</g>
	<g>
		<g>
			<path d="M174.3,780l93.3,88.8v-83.1h30.2v154l-93.1-90.5v85.5h-30.4V780z"/>
			<path d="M346.2,810.6h22.6c7.6,0.6,16.7,6.4,16.7,16.9c0,9.9-7,16.9-16.2,18.1h-23.2V810.6z M315.7,934.4h72.4
				c17.1,0,37.2-16.7,37.2-39.5c0-23.4-15.2-34.9-25.1-39.5c0,0,18.3-10.3,17.5-32.5c-1-29.8-28.6-37.2-38.4-37.2h-63.7V934.4z
				 M346.4,871.1h27.7c6.2,0.2,17.7,6.4,17.7,19.5c0,13.4-11.7,19.3-18.5,19.9c0,0-22,0-26.9,0V871.1z"/>
			<path d="M539.4,816.4c-31.9-21.2-75.2,0.4-77.9,39.7c-1.2,47.7,46,67.4,77.9,46.7c0,0.8,0,30.6,0,30.6
				c-56.5,21-108.3-18.7-108.5-76.3c0.2-48.9,54.1-92.1,108.5-70.5V816.4z"/>
			<path d="M610.3,780l93.3,88.8v-83.1h30.2v154l-93.1-90.5v85.5h-30.4V780z"/>
			<path d="M778.1,811.5v34.7h48.5v26.3h-48.5v35.6h48.5v26.3h-78.9V785.6h78.9v25.9H778.1z"/>
			<path d="M863.6,785.6l39.3,87.2l14-31.4l-26.3-55.9h31l9.7,23.2l9.3-23.2h30.4L946,841.3l14,31.5l37.6-87.2h33.3l-68.2,154.6
				l-30.6-65.6l-30.4,65.8l-70.1-154.8H863.6z"/>
			<path d="M1071.6,781.5c2.7,0,16.9,0.8,30.6,9v29c-8-5.1-18.5-11.9-28.6-11.9c-12.3,0-20.1,9.2-20.1,17.5
				c0,21.2,59.2,19.3,59.2,66.2c0,15.6-11.1,47.7-50.2,47.7c-0.8,0-12.8,1.2-33.9-9.7V897c11.7,12.7,26.3,16,31.9,16
				c12.7,0,21.8-9.9,21.8-22c0-23.2-57.6-18.9-57.6-65.8C1024.6,799.7,1046.4,781.5,1071.6,781.5z"/>
		</g>
	</g>
</g>
</svg>
