<?xml version="1.0" encoding="utf-8"?>
<!-- Generator: Adobe Illustrator 22.1.0, SVG Export Plug-In . SVG Version: 6.00 Build 0)  -->
<svg version="1.1" id="Layer_1" xmlns="http://www.w3.org/2000/svg" xmlns:xlink="http://www.w3.org/1999/xlink" x="0px" y="0px"
	 width="11.7px" height="11.7px" viewBox="0 0 11.7 11.7" style="enable-background:new 0 0 11.7 11.7;" xml:space="preserve">
<style type="text/css">
	.st0{fill:#FFFFFF;}
</style>
<g>
	<defs>
		<rect id="SVGID_1_" x="-750.8" y="-443.5" width="1440" height="900"/>
	</defs>
	<clipPath id="SVGID_2_">
		<use xlink:href="#SVGID_1_"  style="overflow:visible;"/>
	</clipPath>
	<g style="clip-path:url(#SVGID_2_);">
		<text transform="matrix(1 0 0 1 -665.0023 -404.5234)" class="st0" style="font-family:'SFProDisplay-Thin'; font-size:36px;">/</text>
	</g>
</g>
<g>
	<defs>
		<rect id="SVGID_3_" x="-740.8" y="-433.5" width="446" height="42"/>
	</defs>
	<clipPath id="SVGID_4_">
		<use xlink:href="#SVGID_3_"  style="overflow:visible;"/>
	</clipPath>
	<g style="clip-path:url(#SVGID_4_);">
		<text transform="matrix(1 0 0 1 -740.7957 -405.5234)"><tspan x="0" y="0" class="st0" style="font-family:'Audiowide-Regular'; font-size:28px;">MP</tspan><tspan x="49.5" y="0" class="st0" style="font-family:'Audiowide-Regular'; font-size:28px;">S</tspan><tspan x="71.2" y="0" class="st0" style="font-family:'Audiowide-Regular'; font-size:28px;">  </tspan></text>
	</g>
	<g style="clip-path:url(#SVGID_4_);">
		<text transform="matrix(1 0 0 1 -651.409 -405.5234)"><tspan x="0" y="0" class="st0" style="font-family:'SFProDisplay-Light'; font-size:24px;">V</tspan><tspan x="14.5" y="0" class="st0" style="font-family:'SFProDisplay-Light'; font-size:24px;">ideo </tspan><tspan x="61.8" y="0" class="st0" style="font-family:'SFProDisplay-Light'; font-size:24px;">A</tspan><tspan x="76.2" y="0" class="st0" style="font-family:'SFProDisplay-Light'; font-size:24px;">ds Module</tspan></text>
	</g>
</g>
<g>
	<defs>
		<rect id="SVGID_5_" x="-693.8" y="-443.5" width="1440" height="900"/>
	</defs>
	<clipPath id="SVGID_6_">
		<use xlink:href="#SVGID_5_"  style="overflow:visible;"/>
	</clipPath>
	<g style="clip-path:url(#SVGID_6_);">
		<text transform="matrix(1 0 0 1 -608.0023 -404.5234)" class="st0" style="font-family:'SFProDisplay-Thin'; font-size:36px;">/</text>
	</g>
</g>
<g>
	<defs>
		<rect id="SVGID_7_" x="-683.8" y="-433.5" width="446" height="42"/>
	</defs>
	<clipPath id="SVGID_8_">
		<use xlink:href="#SVGID_7_"  style="overflow:visible;"/>
	</clipPath>
	<g style="clip-path:url(#SVGID_8_);">
		<text transform="matrix(1 0 0 1 -683.7957 -405.5234)"><tspan x="0" y="0" class="st0" style="font-family:'Audiowide-Regular'; font-size:28px;">MP</tspan><tspan x="49.5" y="0" class="st0" style="font-family:'Audiowide-Regular'; font-size:28px;">S</tspan><tspan x="71.2" y="0" class="st0" style="font-family:'Audiowide-Regular'; font-size:28px;">  </tspan></text>
	</g>
	<g style="clip-path:url(#SVGID_8_);">
		<text transform="matrix(1 0 0 1 -594.409 -405.5234)"><tspan x="0" y="0" class="st0" style="font-family:'SFProDisplay-Light'; font-size:24px;">V</tspan><tspan x="14.5" y="0" class="st0" style="font-family:'SFProDisplay-Light'; font-size:24px;">ideo </tspan><tspan x="61.8" y="0" class="st0" style="font-family:'SFProDisplay-Light'; font-size:24px;">A</tspan><tspan x="76.2" y="0" class="st0" style="font-family:'SFProDisplay-Light'; font-size:24px;">ds Module</tspan></text>
	</g>
</g>
<g>
	<defs>
		<rect id="SVGID_9_" x="-693.8" y="-444.5" width="1440" height="900"/>
	</defs>
	<clipPath id="SVGID_10_">
		<use xlink:href="#SVGID_9_"  style="overflow:visible;"/>
	</clipPath>
	<g style="clip-path:url(#SVGID_10_);">
		<text transform="matrix(1 0 0 1 -608.0023 -405.5234)" class="st0" style="font-family:'SFProDisplay-Thin'; font-size:36px;">/</text>
	</g>
</g>
<g>
	<defs>
		<rect id="SVGID_11_" x="-683.8" y="-434.5" width="446" height="42"/>
	</defs>
	<clipPath id="SVGID_12_">
		<use xlink:href="#SVGID_11_"  style="overflow:visible;"/>
	</clipPath>
	<g style="clip-path:url(#SVGID_12_);">
		<text transform="matrix(1 0 0 1 -683.7957 -406.5234)"><tspan x="0" y="0" class="st0" style="font-family:'Audiowide-Regular'; font-size:28px;">MP</tspan><tspan x="49.5" y="0" class="st0" style="font-family:'Audiowide-Regular'; font-size:28px;">S</tspan><tspan x="71.2" y="0" class="st0" style="font-family:'Audiowide-Regular'; font-size:28px;">  </tspan></text>
	</g>
	<g style="clip-path:url(#SVGID_12_);">
		<text transform="matrix(1 0 0 1 -594.409 -406.5234)"><tspan x="0" y="0" class="st0" style="font-family:'SFProDisplay-Light'; font-size:24px;">V</tspan><tspan x="14.5" y="0" class="st0" style="font-family:'SFProDisplay-Light'; font-size:24px;">ideo </tspan><tspan x="61.8" y="0" class="st0" style="font-family:'SFProDisplay-Light'; font-size:24px;">A</tspan><tspan x="76.2" y="0" class="st0" style="font-family:'SFProDisplay-Light'; font-size:24px;">ds Module</tspan></text>
	</g>
</g>
<desc>Created with Sketch.</desc>
<g id="Version-2">
	<g id="Edit-Parameters---Step-4-v2" transform="translate(-1307.000000, -23.000000)">
		<g id="Navigation">
			<g id="Link" transform="translate(1302.000000, 13.000000)">
				<polygon id="arrow_back---material" class="st0" points="16.7,15.1 16.7,16.6 7.8,16.6 11.9,20.6 10.8,21.7 5,15.8 10.8,10 
					11.9,11 7.8,15.1 				"/>
			</g>
		</g>
	</g>
</g>
</svg>
