<?xml version="1.0" encoding="utf-8"?>
<!-- Generator: Adobe Illustrator 22.1.0, SVG Export Plug-In . SVG Version: 6.00 Build 0)  -->
<svg version="1.1" id="Layer_1" xmlns="http://www.w3.org/2000/svg" xmlns:xlink="http://www.w3.org/1999/xlink" x="0px" y="0px"
	 width="12px" height="12px" viewBox="0 0 12 12" style="enable-background:new 0 0 12 12;" xml:space="preserve">
<style type="text/css">
	.st0{fill:#FFFFFF;}
</style>
<g id="Version-2">
	<g id="Edit-Parameters---Step-4-v2" transform="translate(-510.000000, -370.000000)">
		<g id="Modal---Cancel">
			<path id="exclamation-triangle---FontAwesome" class="st0" d="M516.8,379.5v-1.2c0-0.1-0.1-0.2-0.2-0.2h-1.2
				c-0.1,0-0.2,0.1-0.2,0.2v1.2c0,0.1,0.1,0.2,0.2,0.2h1.2C516.7,379.7,516.8,379.6,516.8,379.5z M516.8,377.1l0.1-3
				c0,0,0-0.1-0.1-0.1c0,0-0.1-0.1-0.2-0.1h-1.4c-0.1,0-0.1,0-0.2,0.1c0,0-0.1,0.1-0.1,0.1l0.1,3c0,0.1,0.1,0.1,0.2,0.1h1.2
				C516.7,377.2,516.8,377.2,516.8,377.1z M516.7,371l5,9.1c0.1,0.3,0.1,0.6,0,0.8c-0.1,0.3-0.4,0.4-0.7,0.4h-10
				c-0.3,0-0.6-0.2-0.7-0.4c-0.1-0.3-0.2-0.6,0-0.8l5-9.1c0.1-0.3,0.4-0.4,0.7-0.4S516.6,370.8,516.7,371z"/>
		</g>
	</g>
</g>
</svg>
