<?xml version="1.0" encoding="utf-8"?>
<!-- Generator: Adobe Illustrator 22.1.0, SVG Export Plug-In . SVG Version: 6.00 Build 0)  -->
<svg version="1.1" id="Layer_1" xmlns="http://www.w3.org/2000/svg" xmlns:xlink="http://www.w3.org/1999/xlink" x="0px" y="0px"
	 width="12px" height="12px" viewBox="0 0 12 12" style="enable-background:new 0 0 12 12;" xml:space="preserve">
<style type="text/css">
	.st0{fill:#FFFFFF;}
</style>
<path id="save---material" class="st0" d="M8,4V1.3H1.3V4H8z M6,10.7c0.4,0,0.7-0.1,1-0.3S7.5,10,7.7,9.6S8,9,8,8.7S7.9,8,7.7,7.7
	S7.3,7.1,7,6.9S6.4,6.7,6,6.7S5.3,6.7,5,6.9S4.5,7.4,4.3,7.7S4,8.3,4,8.7s0.1,0.7,0.3,1s0.4,0.6,0.7,0.7S5.6,10.7,6,10.7z M9.3,0
	L12,2.7v8c0,0.4-0.1,0.7-0.4,0.9S11,12,10.7,12H1.3c-0.4,0-0.7-0.1-1-0.4C0.1,11.3,0,11,0,10.7V1.3C0,1,0.1,0.7,0.4,0.4
	C0.7,0.1,1,0,1.3,0H9.3z"/>
</svg>
