<?xml version="1.0" encoding="utf-8"?>
<!-- Generator: Adobe Illustrator 22.1.0, SVG Export Plug-In . SVG Version: 6.00 Build 0)  -->
<svg version="1.1" id="Layer_1" xmlns="http://www.w3.org/2000/svg" xmlns:xlink="http://www.w3.org/1999/xlink" x="0px" y="0px"
	 width="16px" height="16px" viewBox="0 0 16 16" style="enable-background:new 0 0 16 16;" xml:space="preserve">
<style type="text/css">
	.st0{fill:#FFFFFF;}
</style>
<path id="simple-line-icon" class="st0" d="M8,0c1.1,0,2.1,0.2,3.1,0.6s1.8,1,2.5,1.7s1.3,1.6,1.7,2.5S16,6.9,16,8s-0.2,2.1-0.6,3.1
	s-1,1.8-1.7,2.5s-1.6,1.3-2.5,1.7S9.1,16,8,16s-2.1-0.2-3.1-0.6s-1.8-1-2.5-1.7S1,12.1,0.6,11.1S0,9.1,0,8s0.2-2.1,0.6-3.1
	s1-1.8,1.7-2.5S3.9,1,4.9,0.6S6.9,0,8,0z M8,15c1,0,1.9-0.2,2.7-0.6s1.6-0.9,2.2-1.5s1.1-1.4,1.5-2.2S15,9,15,8s-0.2-1.9-0.6-2.7
	s-0.9-1.6-1.5-2.2s-1.4-1.1-2.2-1.5S9,1,8,1S6.1,1.2,5.3,1.6S3.7,2.4,3.1,3.1S1.9,4.4,1.6,5.3S1,7,1,8s0.2,1.9,0.6,2.7
	s0.9,1.6,1.5,2.2s1.4,1.1,2.2,1.5S7,15,8,15z M11.5,7.5c0.1,0,0.3,0,0.4,0.1S12,7.9,12,8s0,0.3-0.1,0.4s-0.2,0.1-0.4,0.1h-3v3
	c0,0.1,0,0.3-0.1,0.4S8.1,12,8,12s-0.3,0-0.4-0.1s-0.1-0.2-0.1-0.4v-3h-3c-0.1,0-0.3,0-0.4-0.1S4,8.1,4,8s0-0.3,0.1-0.4
	s0.2-0.1,0.4-0.1h3v-3c0-0.1,0-0.3,0.1-0.4S7.9,4,8,4s0.3,0,0.4,0.1s0.1,0.2,0.1,0.4v3H11.5z"/>
</svg>
