<?xml version="1.0" encoding="utf-8"?>
<!-- Generator: Adobe Illustrator 22.1.0, SVG Export Plug-In . SVG Version: 6.00 Build 0)  -->
<svg version="1.1" id="Layer_1" xmlns="http://www.w3.org/2000/svg" xmlns:xlink="http://www.w3.org/1999/xlink" x="0px" y="0px"
	 width="267.5px" height="30.7px" viewBox="0 0 267.5 30.7" style="enable-background:new 0 0 267.5 30.7;" xml:space="preserve">
<style type="text/css">
	.st0{fill:#FFFFFF;}
</style>
<g>
	<defs>
		<rect id="SVGID_1_" x="-761.6" y="-476.5" width="1440" height="900"/>
	</defs>
	<clipPath id="SVGID_2_">
		<use xlink:href="#SVGID_1_"  style="overflow:visible;"/>
	</clipPath>
	<g style="clip-path:url(#SVGID_2_);">
		<text transform="matrix(1 0 0 1 -675.8423 -437.5234)" class="st0" style="font-family:'SFProDisplay-Thin'; font-size:36px;">/</text>
	</g>
</g>
<g>
	<defs>
		<rect id="SVGID_3_" x="-751.6" y="-466.5" width="446" height="42"/>
	</defs>
	<clipPath id="SVGID_4_">
		<use xlink:href="#SVGID_3_"  style="overflow:visible;"/>
	</clipPath>
	<g style="clip-path:url(#SVGID_4_);">
		<text transform="matrix(1 0 0 1 -751.6357 -438.5234)"><tspan x="0" y="0" class="st0" style="font-family:'Audiowide-Regular'; font-size:28px;">MP</tspan><tspan x="49.5" y="0" class="st0" style="font-family:'Audiowide-Regular'; font-size:28px;">S</tspan><tspan x="71.2" y="0" class="st0" style="font-family:'Audiowide-Regular'; font-size:28px;">  </tspan></text>
	</g>
	<g style="clip-path:url(#SVGID_4_);">
		<text transform="matrix(1 0 0 1 -662.249 -438.5234)"><tspan x="0" y="0" class="st0" style="font-family:'SFProDisplay-Light'; font-size:24px;">V</tspan><tspan x="14.5" y="0" class="st0" style="font-family:'SFProDisplay-Light'; font-size:24px;">ideo </tspan><tspan x="61.8" y="0" class="st0" style="font-family:'SFProDisplay-Light'; font-size:24px;">A</tspan><tspan x="76.2" y="0" class="st0" style="font-family:'SFProDisplay-Light'; font-size:24px;">ds Module</tspan></text>
	</g>
</g>
<g>
	<defs>
		<rect id="SVGID_5_" x="-704.6" y="-476.5" width="1440" height="900"/>
	</defs>
	<clipPath id="SVGID_6_">
		<use xlink:href="#SVGID_5_"  style="overflow:visible;"/>
	</clipPath>
	<g style="clip-path:url(#SVGID_6_);">
		<text transform="matrix(1 0 0 1 -618.8423 -437.5234)" class="st0" style="font-family:'SFProDisplay-Thin'; font-size:36px;">/</text>
	</g>
</g>
<g>
	<defs>
		<rect id="SVGID_7_" x="-694.6" y="-466.5" width="446" height="42"/>
	</defs>
	<clipPath id="SVGID_8_">
		<use xlink:href="#SVGID_7_"  style="overflow:visible;"/>
	</clipPath>
	<g style="clip-path:url(#SVGID_8_);">
		<text transform="matrix(1 0 0 1 -694.6357 -438.5234)"><tspan x="0" y="0" class="st0" style="font-family:'Audiowide-Regular'; font-size:28px;">MP</tspan><tspan x="49.5" y="0" class="st0" style="font-family:'Audiowide-Regular'; font-size:28px;">S</tspan><tspan x="71.2" y="0" class="st0" style="font-family:'Audiowide-Regular'; font-size:28px;">  </tspan></text>
	</g>
	<g style="clip-path:url(#SVGID_8_);">
		<text transform="matrix(1 0 0 1 -605.249 -438.5234)"><tspan x="0" y="0" class="st0" style="font-family:'SFProDisplay-Light'; font-size:24px;">V</tspan><tspan x="14.5" y="0" class="st0" style="font-family:'SFProDisplay-Light'; font-size:24px;">ideo </tspan><tspan x="61.8" y="0" class="st0" style="font-family:'SFProDisplay-Light'; font-size:24px;">A</tspan><tspan x="76.2" y="0" class="st0" style="font-family:'SFProDisplay-Light'; font-size:24px;">ds Module</tspan></text>
	</g>
</g>
<g>
	<defs>
		<rect id="SVGID_9_" x="-704.6" y="-477.5" width="1440" height="900"/>
	</defs>
	<clipPath id="SVGID_10_">
		<use xlink:href="#SVGID_9_"  style="overflow:visible;"/>
	</clipPath>
	<g style="clip-path:url(#SVGID_10_);">
		<text transform="matrix(1 0 0 1 -618.8423 -438.5234)" class="st0" style="font-family:'SFProDisplay-Thin'; font-size:36px;">/</text>
	</g>
</g>
<g>
	<defs>
		<rect id="SVGID_11_" x="-694.6" y="-467.5" width="446" height="42"/>
	</defs>
	<clipPath id="SVGID_12_">
		<use xlink:href="#SVGID_11_"  style="overflow:visible;"/>
	</clipPath>
	<g style="clip-path:url(#SVGID_12_);">
		<text transform="matrix(1 0 0 1 -694.6357 -439.5234)"><tspan x="0" y="0" class="st0" style="font-family:'Audiowide-Regular'; font-size:28px;">MP</tspan><tspan x="49.5" y="0" class="st0" style="font-family:'Audiowide-Regular'; font-size:28px;">S</tspan><tspan x="71.2" y="0" class="st0" style="font-family:'Audiowide-Regular'; font-size:28px;">  </tspan></text>
	</g>
	<g style="clip-path:url(#SVGID_12_);">
		<text transform="matrix(1 0 0 1 -605.249 -439.5234)"><tspan x="0" y="0" class="st0" style="font-family:'SFProDisplay-Light'; font-size:24px;">V</tspan><tspan x="14.5" y="0" class="st0" style="font-family:'SFProDisplay-Light'; font-size:24px;">ideo </tspan><tspan x="61.8" y="0" class="st0" style="font-family:'SFProDisplay-Light'; font-size:24px;">A</tspan><tspan x="76.2" y="0" class="st0" style="font-family:'SFProDisplay-Light'; font-size:24px;">ds Module</tspan></text>
	</g>
</g>
<g>
	<g>
		<path class="st0" d="M22.8,25h-3.6V13.4l-6.3,11.1c-0.2,0.3-0.4,0.5-0.6,0.6c-0.3,0.1-0.6,0.2-0.9,0.2c-0.3,0-0.6-0.1-0.9-0.2
			c-0.3-0.1-0.5-0.4-0.6-0.6L3.6,13.4V25H0V6.9c0-0.4,0.1-0.8,0.4-1.1c0.2-0.3,0.6-0.5,1-0.6c0.2,0,0.4-0.1,0.6,0s0.4,0.1,0.6,0.1
			s0.3,0.2,0.5,0.3C3.1,5.7,3.2,5.8,3.3,6l8.1,14.1L19.5,6c0.2-0.3,0.5-0.6,0.9-0.7c0.4-0.1,0.8-0.2,1.2-0.1
			c0.4,0.1,0.7,0.3,0.9,0.6c0.2,0.3,0.4,0.7,0.4,1.1V25z"/>
		<path class="st0" d="M46.5,13.6c0,0.8-0.1,1.5-0.3,2.2c-0.2,0.6-0.5,1.2-0.8,1.7c-0.3,0.5-0.7,0.9-1.2,1.2
			c-0.4,0.3-0.9,0.6-1.4,0.8c-0.5,0.2-1,0.4-1.5,0.5c-0.5,0.1-1,0.2-1.4,0.2h-8v-3.6h8c0.5,0,0.9-0.1,1.2-0.3s0.7-0.4,1-0.6
			c0.3-0.3,0.5-0.6,0.6-0.9c0.1-0.4,0.2-0.8,0.2-1.2V12c0-0.4-0.1-0.9-0.3-1.2c-0.1-0.4-0.3-0.7-0.6-1c-0.3-0.3-0.6-0.5-0.9-0.6
			S40.4,9,39.9,9h-8c-0.5,0-0.8,0.1-1.1,0.4s-0.4,0.6-0.4,1.1V25h-3.6V10.4c0-0.9,0.2-1.7,0.5-2.3c0.3-0.6,0.7-1.2,1.2-1.5
			c0.5-0.4,1-0.7,1.6-0.9c0.6-0.2,1.1-0.3,1.6-0.3h8c0.8,0,1.5,0.1,2.2,0.3c0.6,0.2,1.2,0.5,1.7,0.8c0.5,0.3,0.9,0.7,1.2,1.2
			c0.3,0.4,0.6,0.9,0.8,1.4c0.2,0.5,0.4,1,0.5,1.5c0.1,0.5,0.2,1,0.2,1.4V13.6z"/>
		<path class="st0" d="M68.4,19.3c0,0.7-0.1,1.3-0.3,1.9s-0.4,1.1-0.7,1.5c-0.3,0.4-0.6,0.8-1,1.1c-0.4,0.3-0.8,0.5-1.2,0.7
			c-0.4,0.2-0.8,0.3-1.3,0.4C63.4,25,63,25,62.6,25H48.9v-3.6h13.7c0.7,0,1.2-0.2,1.6-0.6c0.4-0.4,0.6-0.9,0.6-1.6
			c0-0.3-0.1-0.6-0.2-0.9c-0.1-0.3-0.2-0.5-0.4-0.7c-0.2-0.2-0.4-0.4-0.7-0.5C63.3,17.1,63,17,62.6,17h-8.2c-0.6,0-1.2-0.1-1.9-0.3
			c-0.7-0.2-1.3-0.5-1.9-1c-0.6-0.5-1-1.1-1.4-1.8c-0.4-0.7-0.6-1.6-0.6-2.7s0.2-2,0.6-2.7c0.4-0.7,0.9-1.3,1.4-1.8
			c0.6-0.5,1.2-0.8,1.9-1c0.7-0.2,1.3-0.3,1.9-0.3h12.1V9H54.5c-0.7,0-1.2,0.2-1.6,0.6c-0.4,0.4-0.6,1-0.6,1.6
			c0,0.7,0.2,1.2,0.6,1.6c0.4,0.4,0.9,0.6,1.6,0.6h8.2h0c0.4,0,0.8,0.1,1.2,0.2c0.4,0.1,0.9,0.2,1.3,0.4c0.4,0.2,0.8,0.5,1.2,0.8
			c0.4,0.3,0.7,0.7,1,1.1c0.3,0.4,0.5,0.9,0.7,1.5C68.3,17.9,68.4,18.6,68.4,19.3z"/>
	</g>
	<g>
		<path class="st0" d="M95.5,22.9L89.2,6h1.7l5.4,14.9h0.1L101.8,6h1.7l-6.3,16.9H95.5z"/>
		<path class="st0" d="M104.7,7.2c0-0.6,0.5-1,1-1s1,0.5,1,1s-0.5,1-1,1S104.7,7.7,104.7,7.2z M104.9,10.7h1.5v12.2h-1.5V10.7z"/>
		<path class="st0" d="M108.6,16.8c0-3.8,2.1-6.3,5.2-6.3c2,0,3.5,1.1,4.2,2.7h0V6h1.6v16.9h-1.5v-2.6h0c-0.7,1.6-2.2,2.8-4.2,2.8
			C110.8,23.1,108.6,20.6,108.6,16.8z M110.2,16.8c0,3,1.5,4.9,3.9,4.9c2.3,0,3.9-2,3.9-4.9c0-2.9-1.6-4.9-3.9-4.9
			C111.8,11.9,110.2,13.8,110.2,16.8z"/>
		<path class="st0" d="M132.3,19.5c-0.4,2.1-2.3,3.7-5,3.7c-3.4,0-5.5-2.4-5.5-6.3c0-3.8,2.1-6.3,5.4-6.3c3.2,0,5.3,2.4,5.3,6v0.7
			h-9.1v0.1c0,2.8,1.6,4.5,4,4.5c1.8,0,3.1-1,3.5-2.3H132.3z M123.4,16h7.5c0-2.4-1.5-4.1-3.7-4.1C125,11.9,123.5,13.6,123.4,16z"/>
		<path class="st0" d="M133.9,16.8c0-3.9,2.2-6.3,5.6-6.3c3.3,0,5.6,2.4,5.6,6.3c0,3.9-2.2,6.3-5.6,6.3S133.9,20.7,133.9,16.8z
			 M143.5,16.8c0-3.1-1.6-4.9-4-4.9s-4,1.8-4,4.9s1.6,4.9,4,4.9S143.5,19.9,143.5,16.8z"/>
		<path class="st0" d="M161.6,17.7h-7.1l-1.9,5.2H151L157.3,6h1.6l6.3,16.9h-1.7L161.6,17.7z M155,16.3h6.1l-3-8.4H158L155,16.3z"/>
		<path class="st0" d="M165.9,16.8c0-3.8,2.1-6.3,5.2-6.3c2,0,3.5,1.1,4.2,2.7h0V6h1.6v16.9h-1.5v-2.6h0c-0.7,1.6-2.2,2.8-4.2,2.8
			C168,23.1,165.9,20.6,165.9,16.8z M167.5,16.8c0,3,1.5,4.9,3.9,4.9c2.3,0,3.9-2,3.9-4.9c0-2.9-1.6-4.9-3.9-4.9
			C169,11.9,167.5,13.8,167.5,16.8z"/>
		<path class="st0" d="M183.7,10.5c2.6,0,4.3,1.5,4.5,3.7h-1.5c-0.2-1.5-1.3-2.4-3-2.4c-1.7,0-2.8,0.9-2.8,2.1c0,1,0.7,1.6,2.3,2
			l1.8,0.4c2.4,0.6,3.4,1.5,3.4,3.2c0,2.1-1.9,3.5-4.6,3.5c-2.8,0-4.6-1.5-4.8-3.7h1.5c0.2,1.5,1.4,2.4,3.2,2.4s3-0.9,3-2.1
			c0-1.1-0.6-1.6-2.2-2l-1.8-0.4c-2.3-0.5-3.4-1.6-3.4-3.2C179.4,12,181.2,10.5,183.7,10.5z"/>
		<path class="st0" d="M210.4,22.9V9h-0.1l-5.9,13.9h-1.4L197.2,9h-0.1v13.9h-1.5V6h1.8l6.3,14.9h0.1L210.1,6h1.9v16.9H210.4z"/>
		<path class="st0" d="M214.2,16.8c0-3.9,2.2-6.3,5.6-6.3c3.3,0,5.6,2.4,5.6,6.3c0,3.9-2.2,6.3-5.6,6.3S214.2,20.7,214.2,16.8z
			 M223.8,16.8c0-3.1-1.6-4.9-4-4.9s-4,1.8-4,4.9s1.6,4.9,4,4.9S223.8,19.9,223.8,16.8z"/>
		<path class="st0" d="M226.8,16.8c0-3.8,2.1-6.3,5.2-6.3c2,0,3.5,1.1,4.2,2.7h0V6h1.6v16.9h-1.5v-2.6h0c-0.7,1.6-2.2,2.8-4.2,2.8
			C228.9,23.1,226.8,20.6,226.8,16.8z M228.4,16.8c0,3,1.5,4.9,3.9,4.9c2.3,0,3.9-2,3.9-4.9c0-2.9-1.6-4.9-3.9-4.9
			C229.9,11.9,228.4,13.8,228.4,16.8z"/>
		<path class="st0" d="M250.3,22.9h-1.5v-2.3h0c-0.6,1.5-2.1,2.5-4,2.5c-2.6,0-4.3-1.7-4.3-4.5v-7.9h1.6v7.7c0,2.2,1.1,3.4,3.2,3.4
			c2.1,0,3.6-1.5,3.6-3.8v-7.2h1.5V22.9z"/>
		<path class="st0" d="M253.1,6h1.5v16.9h-1.5V6z"/>
		<path class="st0" d="M267.4,19.5c-0.4,2.1-2.3,3.7-5,3.7c-3.4,0-5.5-2.4-5.5-6.3c0-3.8,2.1-6.3,5.4-6.3c3.2,0,5.3,2.4,5.3,6v0.7
			h-9.1v0.1c0,2.8,1.6,4.5,4,4.5c1.8,0,3.1-1,3.5-2.3H267.4z M258.4,16h7.5c0-2.4-1.5-4.1-3.7-4.1C260,11.9,258.5,13.6,258.4,16z"/>
	</g>
	<g>
		<path class="st0" d="M73.9,30.7l9-30.7h1.2l-9,30.7H73.9z"/>
	</g>
</g>
</svg>
